<svg id="svg" xmlns="http://www.w3.org/2000/svg" xmlns:xlink="http://www.w3.org/1999/xlink" width="400"
    height="376.8595041322314" viewBox="0, 0, 400,376.8595041322314">
    <g id="svgg">
        <path id="path0"
            d="M193.841 9.692 C 187.172 27.286,182.403 35.124,174.962 40.719 C 168.652 45.464,164.244 45.409,146.665 40.364 C 116.690 31.763,109.055 33.588,100.756 51.339 C 83.155 88.989,97.854 137.181,142.651 188.698 C 148.046 194.902,162.984 209.741,169.094 214.965 C 171.930 217.390,175.987 221.233,178.110 223.506 C 191.498 237.841,196.011 241.263,202.291 241.844 L 203.980 242.000 229.338 217.972 L 254.696 193.944 257.094 190.210 C 258.412 188.156,263.015 181.202,267.322 174.756 C 284.827 148.556,293.192 133.338,299.119 116.905 C 309.634 87.753,307.233 62.613,291.974 42.111 C 284.854 32.543,276.538 31.255,255.022 36.386 C 238.868 40.238,235.324 40.872,229.923 40.872 C 218.108 40.872,212.503 35.250,203.504 14.375 C 202.173 11.289,200.585 7.671,199.975 6.336 L 198.865 3.907 197.449 3.907 L 196.033 3.907 193.841 9.692 M317.951 121.788 L 313.316 141.998 310.496 147.258 C 286.494 192.021,260.483 225.058,231.856 247.141 C 227.833 250.244,225.465 252.602,220.792 258.152 C 209.936 271.048,203.710 275.079,198.497 272.587 C 197.027 271.884,193.499 268.567,188.573 263.253 C 187.085 261.648,185.594 260.452,183.436 259.131 C 166.051 248.492,139.542 223.054,118.371 196.694 C 93.278 165.452,77.713 135.689,75.729 115.155 C 75.543 113.225,75.322 110.935,75.239 110.068 L 75.088 108.490 73.512 108.490 L 71.935 108.490 70.769 111.377 C 68.300 117.485,64.421 123.762,54.020 138.482 C 42.494 154.792,39.267 160.847,32.615 178.644 C 16.032 223.010,17.335 262.286,36.460 294.515 C 51.389 319.675,76.774 340.721,115.702 360.212 C 142.542 373.651,161.058 377.519,172.040 371.982 C 177.634 369.161,182.981 364.496,192.676 353.976 C 198.523 347.632,201.152 345.004,201.653 345.004 C 201.743 345.004,202.537 346.458,203.417 348.234 C 217.812 377.287,247.399 377.439,305.785 348.760 C 354.062 325.046,387.422 270.863,382.016 224.944 C 380.154 209.120,376.352 197.929,362.669 167.996 C 359.534 161.138,356.087 153.429,355.010 150.866 C 351.585 142.718,350.742 140.904,348.098 135.988 C 339.391 119.797,329.944 106.222,324.748 102.433 C 322.588 100.857,323.061 99.510,317.951 121.788 "
            stroke="none" fill="#CE9CE5" fill-rule="evenodd"></path>
    </g>
</svg>