<svg xmlns="http://www.w3.org/2000/svg" width="2401" height="2401" viewBox="0 0 2401 2401">
  <defs>
    <style>
      .cls-1 {
        fill: #89cdea;
      }

      .cls-1, .cls-2, .cls-3, .cls-4, .cls-5 {
        fill-rule: evenodd;
      }

      .cls-2 {
        fill: #2d353c;
      }

      .cls-3 {
        fill: #d2d2dd;
      }

      .cls-4 {
        fill: #b1c0ff;
      }

      .cls-5 {
        fill: #fff;
      }
    </style>
  </defs>
  <path id="Color_Fill_5" data-name="Color Fill 5" class="cls-1" d="M30,218H62v4c25.116,11.1,49.77,23.086,73,36l25,10,40,32c13.324,8.494,30.784,9.015,46,16,7.305,3.353,16.709,10.048,24,15l18,18,39,27c13.49,8.73,29.732,10.377,45,18l44,27c10.964,7.867,21.282,17.627,33,25,15.687,9.87,33.506,14.571,48,25l24,24c17.705,13.2,38.069,19.558,60,29,7.49,3.225,10.668,9.974,21,11,20.538-24.943,46.377-7.391,75-19,17.726-7.189,36.122-19.153,54-25,17.4-5.691,35.166-2.681,51-9,15.312-6.111,30.7-17.038,48-21h79c8.946-2.254,17.771-10.752,24-13,12.441-4.489,20.336,6.8,33,4,23.124-5.105,57.8-4,87-4h138c25.09,0.031,39.48,16.465,69,11l42-2,162-1c28.63,0,62.84-9.895,87-4,14.02,3.422,23.85,12.538,36,17l48,7c17.64,5.089,38.42,14.348,54,20,9.49,3.442,19.95-.868,29,2,31.36,9.942,62.31,27.94,105,25,25.83-1.779,40.92-23.25,60-33,38.95-19.906,78.46-35.02,114-58q19.995-15.5,40-31c7.92-4.849,18.01-10.769,26-14l14-3c8.55-5.627,13.67-13.971,25-18,17.13-6.093,41.07,1.692,61-2,65.8-12.189,97.94-1.207,129,39q13.005,22,26,44l3,12c4.95,8.946,16.6,17.341,20,26v746c-42.06,34.19-48.89,81.87-70,137q-7.005,10.5-14,21c-4.02,10.93-3.81,18.8-8,31l-18,33c-10.17,26.29-10.66,53.24-24,75q-13.005,17.505-26,35Q2171,1580,2161,1597c-12.03,15.79-28.35,29.77-40,46-12.44,17.33-18.7,37.92-31,56Q2080,1710,2070,1721c-16.88,24.82-21.77,56.5-36,84-10.36,20.02-32.46,36.32-46,54-10.22,13.34-17.64,28.56-28,42-22.66,29.4-54.02,46.72-84,69-11.52,8.56-25.29,20.56-34,32-5.13,6.74-9.34,14.89-16,20-18.34,14.06-37.97,24.96-55,40-8.75,7.73-20.27,16.26-28,25-10.17,11.49-18.91,25.54-31,35l-37,28c-7.85,7.82-14.22,19.34-24,25-8.29,4.8-17.33,5.22-25,10l-16,13c-27.78,10.09-54.28,15.33-79,28l-17,14c-9.39,5.82-22.27,6.83-31,13-6.78,4.79-10.67,13.6-20,16-26.57,6.83-64.23,4-94,4h-31c-21.66,4.44-44.29,10.64-71,11v4H1098v-4c-57.31-.94-106.554-20.74-153-34q-23-2.505-46-5c-22.175-5.77-51.407-12.75-73-20q-11-.495-22-1c-9.18-2.78-25.606-8.91-35-12q-7.5-.495-15-1c-15.033-4.07-33.566-14.73-48-20-15.157-5.53-28.49-3.7-45-8-14.361-3.74-32.12-8.43-47-14l-20-12q-13.5-4.005-27-8H556l-15-12c-12.148-7.78-24.908-9.78-38-17-20.818-11.47-33.987-33.58-53-47-17.058-12.04-34.866-22.08-51-35q-11-15.495-22-31c-8.88-7-21.489-11.74-28-21-12.516-17.79-21.494-35.5-37-50-8.481-7.93-20.792-11.95-30-19-2.4-1.84-20.8-25.68-23-29q-8-23.505-16-47c-9.8-23.54-22.586-52.23-33-76q-5-17.505-10-35c-7.923-18.58-18.414-38.55-25-59-5.747-17.85-2.463-39.46-9-57-5.061-13.57-16.786-26.94-24-39l-4-12q-6.5-7.005-13-14c-8.031-17.7-8.256-47.98-15-67-10.033-28.3-23.192-60.35-33-88-10.606-29.9-11.752-59.33-22-89-1.906-5.52-6.346-11.27-8-18-4.957-20.18-4.1-35.42-9-57-5.886-25.95-15.13-57.49-23-83-3.475-11.26-5.24-39.31-15-42v-16H4v-2c3.427-6.4.846-14.53,0-22H0v-41H4c1.914-12.55,3.731-57.895-4-60V915H4l2-87,7-37-3-19c-1.33-14.131,1.837-27.808,4-39q-0.5-18.5-1-37c-0.425-23.188,2.487-42.848,6-61l-3-25c2.221-27.135,1-62.461,1-94V243C19.488,233.163,28.309,227.24,30,218Z"/>
  <path id="Color_Fill_4" data-name="Color Fill 4" class="cls-2" d="M1632,476l3,1Zm3,1c4.1,0.816,31.59,7.447,34,10,0.33,0.333.67,0.667,1,1C1656.55,490.326,1640.9,487.014,1635,477Zm643,161,16,1c1.28,2.224,1.01,1.653,3,3,0.91,5.674,1.92,13.686-1,18-9.95,7.306-17.49,7.6-17,26h-1c-3.03,2.478-5.1,3.026-11,3-6.61-12.332-13.88-24.629-14-38,2.02-.252,3.65-5.26,8-8Q2269.505,640.5,2278,638ZM270,761c9.739-.4,25.261-1.182,28,7h-5c-6.554,3.028-15.653-3-23-4v-3Zm1858,69,22,1v3h-2c-5.57,2.9-13.6,1.5-20,1v-5Zm172,14h3v2c9.12,17.128-8.56,45.641-13,54-4.06,7.656,1.32,14.228-9,16-0.67-.333-1.33-0.667-2-1v-4C2272.79,899.168,2294.83,848.8,2300,844Zm-274,24c25.52-.692,42.72,1.978,65,6,8.82,1.591,16.85-2.171,20,5q-5.505,4.5-11,9c-24.68-11.273-46.74,5.957-77,0-12.8-2.52-26.79.491-29-12C2002.18,873.357,2017.33,872.486,2026,868ZM151,916c18.427-.669,53.713,11.245,55,22-2.224,1.281-1.653,1.01-3,3l-36,6c-11.4,2.463-41.738-14.631-42-24l1-1C129.986,921.439,147.036,918.064,151,916Zm1876,6c3.57,1.575,3.75.756,5,5h-5v-5Zm311,23a60.274,60.274,0,0,1,18,2c2.65,6.986,5.24,10.509,4,20-8,4.049-34.39,22.265-40,23-3.67-8.514-5.09-16.588-5-30C2321.96,954.323,2330.37,950.541,2338,945ZM171,968c8.457,0.468,16.46,5.146,28,3,5.743-1.068,13.972-4.746,22-3,18.276,3.975,39.34,9.692,56,15,12.157,3.873,27.358,6.864,33,17,0.333,0.33.667,0.67,1,1h-2c-6.143,4.45-28.557,2.89-37,1l-36-11c-7.806-1.48-20.374,3.451-26,5-8.489,2.337-19.8.331-29-1-3.886-9.191-11.828-11.655-12-24C170.457,969.583,170.005,970.236,171,968Zm1834,187c0.33-3.33.67-6.67,1-10,6.25-2.74,10.24-8.73,15-13,21.01-18.86,15.15-31.93,22-64,7.48-.94,21.63-20.56,23-32-0.67-1.67-1.33-3.33-2-5-6.34-2.38-17.6-6.56-21-12-4.36-9.55,8.68-15.16,12-21l3-15c5.22-5.515,27.79-6.38,37-4q10.995,4,22,8l42-1q10.005,7.5,20,15,7.005,2,14,4,0.495,7.5,1,15c7.99,36.85-1.55,40.33-16,63-4.6,7.21-5.76,15.56-15,18q-9,.495-18,1c-15.54,7.4-21.32,29.91-44,31-6.22-8.5-7.04-29.21-21-30-8.32,12.12-14.07,29.54-17,47-3.12.47-5.99,3.73-13,4C2039.79,1137.89,2018.69,1154.1,2005,1155ZM15,1143c14.677-1.22,27.849-6.75,41-10,17.6-4.35,57.89,5.91,63,14h-1c-2.309,1.56-4.342,1.64-6,4v7c4.654,0.67,40.133,19.71,43,23,3.266,4.91.649,8.9-1,14-7.282,2.28-28.05,9.07-29,18,0.333,0.67.667,1.33,1,2,11.848,7.16,31.244,11.8,39,23v4c-3.114.27-14.308,5.82-17,10-1.034,2.6.137,5.57,1,9,7.272,1.32,19.287,8.46,23,14,1.32,1.97,2.743,10.82,6,14,3.705,3.62,8.373.74,14,3,6.578,2.64,41.281,23.38,43,29-8.922,5.75-6.716,24.15-7,36-3.829,1.62-7.044,6.05-11,7-29.592,7.12-49.367-23.12-65-31-10.429-5.26-25.9,9.94-41,10-3.3-7.35-6-23.13-12-28-9.159-7.44-14.852.78-15-17,4.885-5.94,4.831-18.2,0-24-6.912-7.28-26.352-12.76-43-13-2.127-18.87-7-37.49-9-54,3.6-2.76,4.875-4.47,5-11-3.341-4.68-11.426-12.33-12-17Q20,1161,15,1143Zm111,145q-5.5,2.505-11,5c-1.045,5.71-2.767,6.75-3,14,2.6,1.02,1.83,1.17,5,2,5.591,2.68,32.32,3.08,38,4,1.27-2.24,1.719-1.77,3-4-9.687-4.98-15.061-17.94-26-20C130,1288.67,128,1288.33,126,1288Zm-50,97c15.078-1.82,30.359.83,34,13,2.418,4.75-9.874,52.01-12,55C96.052,1427.11,78.16,1409.93,76,1385Zm592,445c-1.243-6.76-6.366-10.24-2-17q6.5-1.995,13-4c3.156,4.63,5.072,4.04,5,13q-1.5,6.495-3,13c6.176,3.07,13.9,10.88,15,19l1,7c-23.951,7.59-44.227-6.01-62-12-11.721-3.95-22.258,2.07-23,11q2.5,6,5,12c22.464,3.17,30.666,22.89,43,35,6.313,1.3,18.912,8.45,28,12q-0.5,1.5-1,3c-8.308.2-60.99,5.16-66,11v7c7.37,2.24,15.754,6.78,17,15v15c3.076,1.99,3.36,3.16,8,4-0.361,12.64-5.151,18.8-2,32,9.45-.2,18.955-2.87,31-3,1.337,5.3,2.249,13.01,4,19,2.538,8.69-5.707,9.82-2,18,7.113,14.59,39.655,33.77,58,38,13.809,3.19,24.446-14.44,37-7,5.979,5.55,7.368,14.15,17,17,11.133,5.78,20.308-6.4,27-9,2.7,12.01,39.8,36.81,51,38,3.321-7.57,12.1-12.96,20-16l19,18c14.085-.34,38.789-8.35,50,0,4.164,3.1,2.042,9.49,5,14a188.367,188.367,0,0,1,12,20q1.5,6.495,3,13c5.676,9.64,14.673,7.87,24,14,7.4,4.86,5.36,10.95,19,11,8.84-10.72,21.64,3.63,36-3,15.17-7.01,23.34-27.86,44-28,9.59-5.47,27.21,2.08,37,1,17.32-1.92,59.53,22.44,69,31,5.62,5.08,14.54,8.95,16,18,4.94,11.2-12.01,17.69-3,25,3.85,2.46,9.75-.28,15,2,7.88,3.42,22.63,14.86,33,9,7.24-4.09,7.97-11.72,19-13,2.24,2.9,5.78,3.14,10,6,15.59,10.57,20.08,29.66,43,34v1c-22.95,1.14-44.38,9.37-71,10v4H1108q1.995-9,4-18c7.62-2.87,13.27-6.67,13-18-1.95-1.39-1.66-2.2-3-4-11.42-11.83-14.94-1.25-26-5-9.04-3.06-20.78-6.1-29-9-5.93-2.09-9.57,2.17-14,3-10.63,35.37,7.38,36.02,37,44v2h-4q-11.505-.495-23-1c-11.25-2.82-24.82-5.57-38-9-25.825-6.73-55.864-16.11-80-23q-23-2.505-46-5c-22.174-5.77-51.408-12.74-73-20q-11-.495-22-1c-9.181-2.79-25.606-8.91-35-12q-7.5-.495-15-1l-10-6c-10.433-4.22-18.642-3.62-29-8-4.09-1.73-7.878-5.68-13-7q-7.5-.495-15-1l-12-6H661c-14.36-3.75-32.123-8.42-47-14-13.026-4.88-26.6-14.6-42-19q-8-.495-16-1c-2.033-.66-38.617-25-39-26,3.061-2.88,3.928-4.84,4-11-6.733-6.51-7.546-14.32-7-26-6.64-4.48-11.785-11.28-22-12-1.89,13.49-11.348,13.07-17,22-0.333-.33-0.667-0.67-1-1q-9.5-8.505-19-17c11.193-3.11,18.315-12.62,32-15,1.536-8.44,5.871-18.56,0-26-4.02-3.23-10.238-3.26-18-3-3.145,3.78-15.695,4.33-25,4-0.333-2.33-.667-4.67-1-7,9.4-4.28,28.6-13.95,32-24,0.333-1.33.667-2.67,1-4-6-3.45-19.284-7.44-22-14-7.432-15.78,18.519-26.79,21-39-12.163.33-21.774-11.38-32-16H425v-3h2q7.5-.495,15-1,1-3,2-6,5-1.005,10-2c5.977-3.67,13.676-9.39,18-15-4.117-4.83-11.593-11.29-13-18v-7c2.964-7.1,9.25-7.87,11-18l-2-3c-12.12-8.8-24.769-1.95-37,1-11.011,2.66-22.028-2.08-29-4-28.395-7.82-31.156,1.53-50-16-4.946-4.6-7.842-1.76-8-12,5.988-3.98,4.176-15.69,1-21,0,0-24.949-27.77-29-30H289c-16.174-9.49-35.731-15.63-53-4-3.051,2.05-9.32,1.95-11,5v18c-0.333-.67-0.667-1.33-1-2-12.375-19.9-14.2-43.06-24-66-8.478-19.85-20.843-40.9-26-64-2.589-11.59-9.793-40.68-7-50,2.221-4.01,6.622-4.79,9-8,3.442-4.64-.574-11.99,2-18,4.417-10.32,15.876-20.69,26-25,18.133-7.71,46.133-.46,61-12,8.464-8.53,8.318-20.11,15-31,6.87-11.19,17.793-30.23,28-42,2.913-3.36,9.316-4.37,12-8,3.018-4.08,2.533-9.56,6-13,4.463-4.43,11.53-2.16,17-6,4.071-2.86,5.451-9.3,11-11,6.606-2.02,15.281-.32,20-2,6.111,7.37,15.622,9.46,17,22-3.116,2.1-21.018,33.95-21,34,3.176,9.27,6.74,11.41,9,23-4.458.59-9.609,8.09-14,12v7c3.484,2.01,4.8,6.35,8,8,6.947,3.59,16.657.99,21,7,0,0,8.685,38.5,8,44-6.282,3.73-9.454,11.86-15,16q-7.5,4.005-15,8c-3.993,5.38-11.719,23.13-14,29l-1,10c-5.635,7.38-14.176,6.84-17,16-2.122,3.26-1.556,4.63-1,9h2c19.284,9.36,33.809-11.09,48,6,17.328,20.87-4.992,36.43-2,48,2.252,8.71,11.677,8.23,18,13l9,12c7.449,5.47,24.576,3.64,36,5,1.291,3.13,1.9,2.45,3,6q1,9,2,18c6.457,1.97,14.419,4.44,15,13,1.749,5.85-4.086,14.57-1,20v1c19.415,2.42,22.219-12.9,41-11v3c1.6,4.57-2.719,9.88-4,15a45.253,45.253,0,0,0,15,2c6.244-4.23,19.846-12.49,30-11q12.5,0.495,25,1c16-3.83,19.994-20.6,44-15C639.308,1815.5,648.748,1830.9,668,1830ZM144,1453h10v2c-2.938,1.91-3.619,4.27-7,6-1,.33-2,0.67-3,1-1.594-2.89-2.258-2.78-3-7C143.27,1454.03,142.577,1454.45,144,1453Zm1449,23c17.95-.36,29.82,8.3,43,10,26.07,3.37,73.69,16.3,74,46-0.33.67-.67,1.33-1,2-4.73,2.19-8.76,6.21-13,8-12.06,5.11-24.46-5.97-30-9l-25-6c-18.79-7.94-34.18-20.83-47-35C1593.42,1486.28,1591.8,1480.62,1593,1476Zm-1485,1c32.86,0.32,54.969,12.95,65,35v13c0.25,24.2-11.127,45.23-28,54v-1c-3.793-4.28-3.675-9.81-7-15q-6.5-7.005-13-14-3.5-19.995-7-40Q113,1493,108,1477Zm715,96c0.173,32.7-13,30.45-18,50q-1,14.505-2,29c-2.277,5.8-10.235,11.66-7,23,3.362,11.79,17.605,15.41,23,25,4.44,8.88-2.439,17.77-4,24-6.127,24.45-12.854,41.01-22,62-2.519,5.78-9.988,14.03-6,23,3.394,9.2,11.209,10.35,18,16,23.6,19.64,46.493,36.72,86,20,8.732-3.7,20.934-3.93,25-12,3.605-4.68.726-11.57,5-17,5.291-6.72,16.38-6.47,23-12,3.863-3.22,8.959-10.04,12-14,4.865-6.33.469-18.28,5-26,11.2-19.07,36.534-28.09,62-30,4.59,3.79,9.3,5.14,11,12,13.54,24.34-28.35,59.95-40,70,0.608,14.45,14.36,33.81,3,49-12.527,16.75-32.045,22.16-51,33q-14,16.005-28,32-2.5,10.5-5,21c-2.782,9.3-7.955,13.47-5,25,17,2.42,43.9,11.79,44,31-3.526,2.36-4.448,11.58-4,12,1.782,3.39,1.982,2.91,7,3,11.963-8.06,56.4,22.53,57,36-3.32,1.88-3.39,3.1-8,4-6.837,3.42-47.2-7-56-9-11.163-2.54-14.8,10.06-26,7-12.741-3.48-23.9-16.94-36-23-13.481-6.75-27.976-1.37-36-11q7-7.005,14-14v-8q-5-5.505-10-11c-5.5-8.57,4.149-15.67,5-26l-8-12q-12.5-10.5-25-21c-11.168-15.06-20.6-38.47-36-49-18-12.3-45.067-18.38-54-39-10.365-23.93,7.556-68.69,11-85,2.194-10.39-3.474-16.94-5-23-2.016-8.01,6.243-10.46,3-18-2.558-5.95-6.5-12.42-9-20-1.612-4.89,3.643-13.21,2-17-1.98-4.57-5.586-3.69-6-12,3.98-2.98,3.256-8.77,6-13,2.572-3.97,8.067-5.48,11-9,6.02-7.22,10.857-33.06,8-47-2.261-11.03-9.459-12.82-10-25,5.923-3.68,13.235-27.09,21-28,8.237,11.9,5.683,37.7,18,44q5,1.995,10,4C798.023,1594.14,820.152,1573.55,823,1573Zm939,21c25.94-.43,30.88,2.66,46,11,10.53,5.81,40-3.13,43-2,10.55,3.96,22.78,12.29,33,17q12.495,1.995,25,4c10.64,3.73,23.51,13.03,30,18,10.11,7.74,36.23,8.61,37,25-8.48,5.18-12.72,16.2-26,19-7.12-7.93-30.31-6.04-45-10-6.27-1.69-12.76-8.09-19-10-13.69-4.19-42.27,6.71-62,2-29.34-7.01-44.23-10.77-63-28-3.11.13-18.82-10.02-21-16C1734.04,1611.18,1753.89,1597.95,1762,1594Zm-655,11h4c3.5,6.55,7.65,29.77,3,37-2.56,2.62-3.5,2.95-9,3-1.33-2.33-2.67-4.67-4-7C1094.64,1627.98,1101.2,1611.75,1107,1605ZM701,1717c9.507,6.69,14.843,14.35,23,22-0.333.67-.667,1.33-1,2-7.987,15.33-27.145,23.31-50,24-2.193-3.36-3.412-3.53-4-9,8.209-5.6,12.356-16.7,18-25C690.551,1725.78,697.489,1722.17,701,1717ZM329,1897q-0.5,3-1,6c-4.168,1.44-5.237,3.73-7,2-0.333-1.33-.667-2.67-1-4,1.759-1.29,1.864-1.88,4-3C325.666,1897.67,327.333,1897.33,329,1897Zm-58,3c3.224,1.7,2.339.63,3,5h-1v-2C271.543,1901.58,271.994,1902.24,271,1900Zm450,17c18.366-.21,23.3,11.68,32,21q-0.5,3-1,6h-3c-10.4,5.33-26.736-7.25-33-11-0.964-4.85-4.011-7.7-3-11,1.418-2.21-.181-0.57,2-2Zm76,101c14.926-.59,47.2,2,49,12-5.464,1.09-10.1,4.93-14,8-5.03-1.44-5.177-3.23-11-4-1.026,3.98-12.641,26.72-15,28H786c-1.754-2.11-4.535-1.72-7-3h-1c-1.349-19.46,4.2-29.6,15-40C794.333,2018.67,795.667,2018.33,797,2018Zm270,61c-15.62.56-20.83-.94-39-1-3.4-4.7-7.11-4.29-8-12,2.77-1.07,2.18-1.37,6-2,2.59,0.6,9.69-2.65,16-1C1047.79,2064.51,1065.86,2072.7,1067,2079Zm-247-12h6v2c-2,.67-4,1.33-6,2v-4Zm283,221h-5v-4c-2-.33-4-0.67-6-1,3.67,0.33,7.33.67,11,1v4Z"/>
  <path id="Color_Fill_3" data-name="Color Fill 3" class="cls-3" d="M30,218H52v3c-5.128,3.281-20.5,35.024-22,44,3.87,2.467,4.488,8.324,8,11l24,5c4.424,2.236,14.152,9.727,20,14,7.429,5.428,20.931,7.048,29,11,9.4,4.6,23.05.805,33,5,6.849,2.888,44.157,27.141,47,32,0.994,1.682,5.1,39.474,5,40h-8c-3.062-6.62-4.375-2.732-11-6-2.008-.99-4.76-5.839-7-7l-22-1c-5.016-2.731-12.423-11.8-16-14-9.459-5.83-18.272-.177-29-5-9.245-4.156-20.275-7.422-30-10-14.257-3.779-31.917,3.126-35,11v6c10.727,3.924,21.557,9.977,32,15,9.7,4.667,19.8.515,29,5,6.578,3.206,16.771,10.585,30,11v6l-1,1L82,406c-1.672,1.736-1.193.893-2,4l2,3c7.849,8.122,33.574,11.8,52,8,11.644-2.4,24.738-8.5,36-11l23-1c3.74-1.456,9.728-6.031,13-7,14.363-4.256,45.26,5.657,48,14,3.818,7.948-6.168,17.513-9,23,4.049,2.674,8.394,9.99,9,16-32.554,14.535-32.564,4.447-61-7l-15-1c-7.076-5.721-8.261-9.622-22-10-2,3.082-11.5,10-15,11l-16-2-39,1c-5.574,1.321-14.582,4.89-24,3-16.6-3.331-35.675-6.828-45,3V243C19.469,233.146,28.3,227.25,30,218Zm103,38,4,2v1h-3v-1ZM762,651h-4c-4.752-7.673-8.757-19.6-13-27-7.06-1.3-16.963-4.47-28-1-5.537,1.741-5.559,4.052-13,4-4.715-8.5-29.524-37.745-37-43-9.4-6.607-21.9-5.669-31-12-16.108-11.206-16-22.254-44-21v18c19.532,10.052,20.69,47.306,31,67v32c-5.814,14.765-10.14,12.946-20,25-3.29,4.022-4.064,10.9-7,15-3.392,4.737,6.562,28.8,2,38-2.173,4.382-10.011,9.524-14,15-5.164,7.088-.2,15.329-3,24-2.449,7.586-11.865,13.547-17,19q1,7.5,2,15c8.139,2.09,9.166,7.652,15,11,21.507,12.341,39.2,8.854,53,27,6.876,9.038,6.234,23.146,13,32,7.648,10.008,26.477,25.68,37,33,4.93,3.429,10.657,3.23,14,8,5.219,7.448,17.34,24.476,15,37q-2.5,7.5-5,15c1.13,14.406,8.061,24.66,8,43-2.629.85-1.12-.69-2,2q1,6.495,2,13c6.364,3.94,6.47,7.13,18,7,5.412,3.25,13.7,6.87,20,8,1.43-2.68,1.707-3.92,4-3,3.189,1.73,10.983,10.95,13,14,1.4,2.09,1.668,3.47,2,7-3.389,1.72-6.152,2.54-8,6,1.159,1.05,7.889,50.44,8,55-7.077,6.36-10.943,14.57-11,28h2c1.333,0.33,2.667.67,4,1,2.577-4.59,4.594-6.92,12-7,2.109,3.46,6.746,11.44,10,14,1.333,0.33,2.667.67,4,1,4.06,5.42,5.969,18.64,11,25,4.907,4.06,12.492,6.73,21,7,6.063-6.62,24.41-38.52,33-43v1c12.928,5.18,22.765,40.42,35,45q5.5,1.005,11,2c3.206,14.47,7.7,42.58,13,59,4.731,14.65-14.8,31.47,1,43,1.333,0.33,2.667.67,4,1,11.6-28.03-3.876-39.47,18-61,5.994-5.9,5.428-10.92,18-11,0.333-.33.667-0.67,1-1,1.691,3.92,5.017,4.15,7,7,9.744,14.01-.173,31.44,25,33,7.8-8.45,13.31-1.57,24-4,4.05-.92,3.72-3.56,10-4,4.03,12.43,9.77,22.79,14,33,5.3,12.8-1.76,35.97-2,47,27.03,11.77,32.67,95.97,8,111-3,.33-6,0.67-9,1-3.23,5.43-8.5,7.52-10,15-6.52,12.83,6.31,29.67,9,39,4.63,16.06-11.31,37.93-2,55,0.9,1.65,4.99,4.32,6,6,4.72,7.87,3.96,12.72,12,17,5.78,3.14,19.85-4.54,21-7,3.88-5.98,2.02-13.26,5-21,4.03-10.46,7.89-20.88,16-31,4.29-5.35,12.78-7.74,17-13,4.48-5.59,9.2-16.03,15-20,12.61-8.64,21.41-5.78,31-19,7.22-9.95,10.11-22.43,17-33,13.76-21.12,32.02-42.62,47-63,4.76-6.48,6.68-20.14,13-25,13.89-10.68,37.91-24.9,56-30l28-3c10.42-2.39,30.52-5.99,45-3,36.25,7.49,63.59,36.55,100,39v-7c5.34-3.01,11.82-6.42,13-14-2.12-1.43-1.83-1.72-3-4-7.05-1.34-12.73-5.89-23-4-7.6,1.4-10.66,3.79-20,4-2.91-4.75-8.13-5.57-11-10,2-.33,4-0.67,6-1,2.67,3.67,12.32,3.76,18,4-0.78-10.4-8.02-20.56-18-22-7.43-4.51-21.83-3.86-22,6,4.19,1.83,6.08,2.67,7,8-0.67.33-1.33,0.67-2,1-5.29-1.03-17.66-3.46-19-9v-2c2.32-4.22,5.4-3.91,7-9-0.33-.67-0.67-1.33-1-2-14.47-2.29-21.01-14.14-30-22-5.81-5.08-17.59-7.14-24-11-3.87-2.33-26.91-1-30-4-0.97.63-3.47,3.79-7,2-8.62-4.37-23.69-17.62-37-9-4.99,3.23-7.31,10.65-12,14-6.9,4.92-12.84,7.47-18,13q-1.995,6-4,12c-10.14,17.46-25.46,37.38-54,37-1.77-4.68-2.61-16.78-6-21-5.18-6.43-13.54-3.98-17-11-15.11-21.31-6.38-61.1,5-77,12.14-1.96,23.02-16.85,27-30,7.96-26.32,2.91-88.9,26-96,1.93,2.45,4.49,2.18,9,2,5.69-11.15,18.56-19.52,25-30,5.15-8.37,5.82-18.26,14-24,8.5-7.35,15.02-5.59,26-4,2.12-15.8,14.08-21.79,20-34q10.5-.5,21-1c7.25-17,25.06-21.716,38-33,5.64-4.916,16.66-27.406,22-35,10.59-15.075,46.14-46.9,46-72-4.51-3.334-8.68-23.037-5-33,4.62-12.512-1.86-35,3-48,3.06-8.183,8.15-20.366,4-36-5.09-19.164-21.52-2.486-34-8-4.39-1.938-8.67-6.459-13-9-0.29-49.016-48.16-42.495-87-41-2.47-2.206-4.34-2.8-6-6-3.75-6.678-.71-20.018,0-29,4.57-2.366,13.36-7.362,16-13-3.5-10.515,5.58-27.426,19-27,2.56,2.619,3.5,2.95,9,3,2.29-3.3,4.43-2.572,6-7,3.06-5.268,1.17-20.155,0-28-9.89-4.244-12.96-16.387-21-22l-12-2c-6.67-3.229-15.04-9.237-21-14-12.78-10.215-11.17-20.9-19-36-3.8-7.331-15.04-13.331-21-19-4.93-4.688-7.89-32.148-11-31-0.67-2-1.33-4-2-6h4c9.08,4.374,57.53-2,72-2h169c20.15-.13,37.11-9.346,59-5,18.19,3.61,28.54,12.6,43,18l45,7c9.71,3.281,15.6,9.951,25,14,5.4,2.327,10.93-1.967,14-3q10.995,5,22,10c8.82,2.341,17.09-1.5,25,1,3.73,1.179,7.47,5.789,12,7h14c22.09,6.3,52.56,27.218,87,17,20.39-6.049,34.33-22.9,52-32,38.9-20.028,78.43-35.034,114-58q19.995-15.5,40-31c7.93-4.868,18-10.726,26-14l14-3c8.56-5.638,13.7-13.9,25-18,17.06-6.2,41.11,1.7,61-2,27.99-5.2,67.73-10.947,91,3,24.23,14.521,43.16,42.917,58,67q4.5,12.5,9,25c6.42,11.551,16.54,19.886,23,31q1.995,10,4,20c3.34,9.8,7.14,21.673,11,34,4.57,14.588,14.22,30.2,18,46,7.35,30.748-6.66,58.115-1,88,9.94,52.43,4.43,120.5,9,178h4v189h-4q-1.995,14.505-4,29v52c-3.94,20.97-5.45,38.89-13,56l-12,15q-7.5,16.995-15,34c-11.69,17.48-28.78,31.08-40,50-14.93,25.19-18.95,58.13-30,87-4.54,11.85-15.23,23.11-20,36q-1.005,7.995-2,16l-18,33c-8.25,21.27-7.25,43.47-17,63-7.95,15.94-20.97,29.97-31,44q-10.995,18.495-22,37c-12.03,15.79-28.35,29.77-40,46-12.44,17.33-18.7,37.92-31,56Q2080,1710,2070,1721c-16.88,24.82-21.77,56.5-36,84-10.36,20.02-32.46,36.32-46,54-9.09,11.87-15.47,24.26-24,37-7.44,11.11-19.4,20.38-28,31-14.77,18.24-41.03,28.9-60,43-11.52,8.56-25.29,20.56-34,32-5.13,6.74-9.34,14.89-16,20-18.34,14.06-37.97,24.96-55,40-8.75,7.72-20.27,16.26-28,25-10.17,11.49-18.91,25.54-31,35l-37,28c-7.85,7.82-14.22,19.33-24,25-8.29,4.8-17.33,5.22-25,10l-16,13c-27.77,10.11-54.27,15.34-79,28l-17,14c-9.39,5.82-22.27,6.83-31,13-6.78,4.8-10.67,13.59-20,16-27.15,7.01-65.55,4-96,4q-18.495-.495-37-1c-19.28-8.81-28.17-36.76-50-39-15.45,23.17-38.01,8.75-64,2-1.06-11.56,6.13-14.54,5-29-10.23-5.5-17.15-18.57-25-24q-7.005-1.005-14-2c-7.08-3.51-10.1-9.91-16-13q-6.495-.495-13-1c-17.57-5.38-38.61-6.25-64-6-2.95,6.36-27.14,24.78-34,28-7.83,3.67-21.16-3.64-26-2-6.21,2.1-10.56,5-20,5-2.7-5.94-9.5-11.98-16-14-2.666-.33-5.334-0.67-8-1-6.9-4.92-25.4-45.06-26-54-3.826-1.66-9.179-5.67-13-7-5.761-2.01-13.167,4.06-20,2-0.851-.26-3.3-3.44-7-2-3.912,1.52-5.882,3.71-13,4-6.423-6.17-12.395-14.18-21-18-1.839,2.4-18.956,15.37-22,16-8.34-10.3-23.109-12.73-35-20-6.159-3.77-8.213-15.49-15-18-3.344,8.75-15.976,10.78-27,9-3.572-7.72-9.654-10.81-14-18-12.531-1.2-20.086,5.02-30,8-18.945,5.69-57.072-29.57-66-38,0.908-10.47,8.906-36.97-9-37-5.37,3.51-20.184,6.25-23,1-5.832-8.92,1.532-20.29,2-30h-4c-2.587-4.74-4.136-6.31-4-15v-8c-4.665-2.68-13.781-7.39-17-13v-7c11.712,0.03,19.028-3.06,26-7,8.227-4.65,22.441,2.42,29-1,4.627-2.41,8.218,1.08,11-3v-1c-4.349-2.74-27-12-27-12q-7.5-10.5-15-21c-7.943-5.57-22.566-8.14-28-16-3.243-3.99-4.824-8.87-5-16,20.846-11.25,43,5.13,64,10,11.83,2.74,20.32.11,21-10-0.333-1.33-.667-2.67-1-4q-7.5-7.995-15-16l3-21c-2.666-1.33-5.334-2.67-8-4-2.349,2.1-7.86,2.83-11,4-1.092,8.66,1.754,9.46,3,17-22.764,1.14-33.877-26.55-65-19-8.98,2.18-13.511,9.99-23,14H547c-14.564,2.37-19.454,11.08-38,11-1.631-2.29-1.944-1.64-3-5,3.949-3.82,4.734-9.01,4-15h-3c-14.666-6.01-21.961,19.7-38,10h-1c-0.479-7.95,2.276-15.85,2-25-4.784-3.12-12.932-4.98-15-11q-1-9-2-18c-3.129-1.29-2.451-1.9-6-3q-13-.495-26-1c-3.453-1.08-31.928-25.63-33-29-3.074-7.4,5.4-13.41,7-20,1.893-7.81-.683-17.27-3-21-15.221-24.47-23.162-7.57-53-13v-3c-1.072-2.81.281-5.07,1-9,21.213-9.76,18.339-33.58,32-52,6.359-8.58,26-12.27,30-27,3.294-6.78-7.133-36.48-8-43-12.865-1.64-28.829-5.11-29-20h1c2.919-5.77,11.681-10.18,13-14v-8c-2.239-5.83-8.064-9.13-9-18,8.406-5.39,19.725-22.32,21-34-6.1-4.26-8.692-15.27-17-17-2.009-.42-2.662,1.83-6,2-20.986,1.06-13.937,3.36-25,11-5.535,3.82-12.535,1.53-17,6-3.454,3.46-2.971,8.92-6,13-5.893,7.93-17.723,15.02-24,24-12.731,18.21-19.962,38.06-31,58q-12,3.495-24,7-10-1.005-20-2c-11.081,4.19-28.151,9.95-36,18-7.373,7.56-3.47,23.66-9,31-2.437,3.23-6.8,3.91-9,8-0.333-.67-0.667-1.33-1-2-3.577-4.09-19.617-32.35-19-35,6.4-13.8,20.408-19.71,26-36v-17c-0.665-36.76-29.493-48.35-66-49q-4-10.5-8-21c-3.167-14.53,13.279-41.43,11-61-12.046-5.85-15.621-11.25-35-10-1.018-13.28-6.613-25.99-10-37-9.209-29.93-14.679-56.76-23-87h5c8.055,3.95,17,1.63,26,5q6,4.005,12,8c3.239,14.86-.856,17.21-1,35,3.6,2.13,11.354,3.07,15,6,11.223,9.03,1.256,28,23,28,6.628-6.76,18.646-11,30-10,7.3,11.03,30.364,24.69,45,29,13.336,3.93,29.573,2.39,31-10v-17c1.436-7.02,5.263-10.98,7-17q-21.5-13.005-43-26c-5.6-2.41-10.139.53-14-3-6.3-5.77-4.841-14.24-11-19-5.253-4.06-13.84-4.22-18-11-1.917-3.15-1.647-5.36-1-9,5.637-.98,16.023-7.36,17-10v-4c-3.679-.68-37.848-20.35-39-23-0.333-1.67-.667-3.33-1-5,8.343-3.48,24.6-7.36,29-15,3.394-3.99,2.976-8.18,1-13-11.483-5.44-36.322-14.79-43-24v-7c4.379-.57,5.291-0.69,7-4-15.257-4.6-38.609-17.9-63-12-13.434,3.25-26.67,9.17-42,10-0.073-10.01-7.492-36.4-14-38v-16H4v-2c3.427-6.4.846-14.53,0-22H0v-41H4c1.914-12.55,3.731-57.895-4-60V915H4l2-87,7-37c0.229-10.361-5.306-21.231-3-34,2.745-15.2,7.371-35.96,4-55q-0.5-16-1-32c10.722-58.244,3.931-139.309,4-213h1v1c11.244,12.528,24.552,13.077,44,18,19.013,4.813,46.054-2.9,46,20-1.369,1.769-1.4,1.993-2,5-5.553,1.677-15.981,5.452-18,11,9.8,1.282,11,2.34,20,2,3.349,7.076,10.663,20.9,18,24l13,1,1,3-1,1c-18.772,1.049-31.718,1.029-51,1v2h1c9.112,7.083,23.462,13.467,34,17,6.386,2.141,14.867-4.31,22-1,14.32,6.645,28.045,16.359,46,18,0.839,3.05,3.232,5.156,4,7q0.5,9,1,18c7.393,5.525,17.406,6.491,25,12,8.487,6.157,12.735,15.365,19,24,2.993,4.126,7.479,4.407,10,10-3.037,2.092-1.942,3.5-6,5-14.136,6.812-32.208-7.264-52-3-24.013,5.174-18.57-6.823-37-11-3.31-.75-26.549-2.158-27-2-4.313,1.511-18.128,7.237-24,5-7.4-2.819-11.682-6.691-23-7l-1,4,2,3c7.115,6.028,16.037,1.526,26,6,10.1,4.537,19.048,11.514,28,16l5-1c11.712,4,22.552,7.332,32,12,8.52,4.21,20.31-.089,31,2,12.235,2.391,28.845,3.71,39,7l19,9c9,2.986,23.308,4.059,31,6l40,4c6.848,3.231,7.249,10.238,18,11,2.106-2.943,2.688-2.546,3-8-5.632-2.458-8.015-7.845-8-16,10.619-9.894,24.785-14.375,41-19,0.983-5.29,2.733-7.787,0-12-15.594-15.851-61.065-19-87-24v-7c5.261-3.011,11.893-9.159,18-11,14.353-4.328,17.231.194,29-7q0.5-5,1-10c11.659-4.319,16.038-9.36,29-6,1.413-2.921,1.988-2.212,3-6-4.49-5.374-21.584-29.266-23-33q-1-11-2-22c-4.078-10.5-17.642-22.826-22-31-2.786-5.225-.911-8.919-4-13-3.559-4.7-9.657-5.049-14-9-4.041-3.677-10.891-23.918-8-30,1.1-2.541,1.737-3.587,4-5,12.979-7.367,38.819,4.291,40-15-14.416-13.656-14.754-38.991-27-55-6.546-8.558-32.408-23.16-43-28-2.875-1.314-15.192-4.851-16-4-9.8-9.216-37.352-31.887-54-32-1.819,3.163-3.068,4.8-7,6-4.694-11.813-28.581-37.152-38-43-10-6.206-22.044-8.915-29-18h3c10.54,6.734,22.205,9.8,32,17,9.568,7.033,17.634,17.388,28,24,13.708,8.743,33.613,8.239,48,17,28.239,17.2,51.1,40.94,79,59,17.374,11.246,41.059,14.118,59,25,18.7,11.344,35.16,27.08,53,39,11.3,7.552,23.593,10.074,36,17,18.465,10.308,30.091,26.137,46,38,17.705,13.2,38.069,19.558,60,29,7.49,3.225,10.668,9.974,21,11,20.447-24.879,46.32-7.488,75-19,17.724-7.115,36.116-19.287,54-25,17.542-5.6,35.1-2.709,51-9,15.293-6.05,30.7-17.18,48-21h75v1c-5.108,4.434-12.915,10.938-15,18-2.937,9.945,3.333,23.008-2,32-3.992,6.73-13.295,6.43-16,16-5.268,18.634,4.16,34.834-9,46-7.416,4.3-19.611,1.708-27,6-3.477,2.019-5.9,7.508-9,10-3.54,2.85-4.208-.089-6,5-7.718,15.162-2.616,53.507-10,65-2.859,3.024-5.491,4.454-11,5-10.559-8.9-15.785-24.329-33-25C764.44,644.2,762.437,643.923,762,651ZM152,451h22c1.419,3.221,4.5,5.558,6,8q1,6.5,2,13c4.771,4.882,37.256,14.352,46,16,17.041,3.211,37.09-3.542,49,4,2.882,2.624,3.677,3.46,4,9-16.27,6.6-24.4,3.43-38-2-10.689-4.268-20.5,2.914-30,3H141c-0.874,7.2-3.516,10.208-12,10-1.492-2.706-1.817-1.579-3-5v-8c7.809-2.939,25.307-6.67,28-15,3.9-8.926-3.514-22.194-5-30C151.843,452.575,150.543,453.8,152,451Zm95,82c11.248,0.674,33.606,5.284,37,14v7c-2.779,2.126-4.447,7.058-8,8-4.011,1.063-7.986-3.164-10-4-15.894-6.6-23.932-2.973-29-23h3Zm77,58,7,1c0.951,3.046,1.461,3.018,2,7l-1,2H298c-2.421-3.771-6.672-5.131-9-9Zm1954,47c-14.07,8.412-25.26,3.334-25,22,7.65,4.067,3.87,29.2,22,29,1.43-2.122,1.72-1.826,4-3V673c6.56-3.933,10.02-9.324,18-13,0.91-5.675,1.92-13.686-1-18-2.14-2.181-1.94-2.306-6-3ZM251,732l-1,3c4.655,0.191,5.064.836,8,2,1.228-1.982,1.5-1.576,3-3C257.153,733.058,256.352,732.207,251,732Zm138,0c-1.891,4.348-6.181,6.7-5,11,5.8,13.945,30.884,35.39,49,35,1.28-2.224,1.01-1.653,3-3,1.116-7.481,2.978-12.135,3-22C420.135,746.2,417.932,732.028,389,732Zm118,69h6l3-5-4-2c-2.06,3.6-4.581,5.523-10,6-2.507-6.353-6.471-16.488-12-20-4.64-2.947-10.95-1.777-14-6-4.78-6.617-2.472-13.026-11-16l-3-1c-1.933,3.46-2.832,4.07-3,10,2.327,1.818,1.583,1.05,2,5-1.931.963-23.756,9.677-24,10q-2.5,8-5,16c-3.789,4.047-8.941,3.867-11,10,21.858,9.785,61.654,50.216,88,47,1.688-3.98,2.887-4.464,3-11C503.462,837.775,506.673,813.373,507,801ZM270,761v3h4c6.777,4.318,14.66,4.632,24,4v-3C289.019,762.018,281.634,761.116,270,761Zm1858,69c-0.33,1.333-.67,2.667-1,4l6,1c3.75,1.878,12.49.047,17-1v-3h-2Zm172,14-3,1c-4.49,26.146-20.53,36.953-18,70h2l4,1c9.46-17.605,23.14-44.493,18-72h-3Zm-274,24c-9.98,4.343-29.53.3-32,12,33.21,18.611,74.39-1.712,107,8,3.13-4.686,8.08-5.857,10-12C2082.17,872.031,2057.53,868.189,2026,868ZM151,916c-8.715,3.956-18.041,2.169-25,7q-0.5,3-1,6c18.214,10.89,48.887,26.9,78,11,2.181-2.144,2.306-1.935,3-6q-0.5-1-1-2C191.859,924.844,174.54,915.926,151,916Zm1876,6c-0.33,1.333-.67,2.667-1,4l6,1v-3Zm311,23c-14.24,9.514-23.78,7.323-23,33q2.505,5.5,5,11c1.67,0.333,3.33.667,5,1,7.4-11.088,31.84-16.032,35-26,3.33-6.034-1.9-14.821-6-17C2350.72,944.522,2344.05,944.788,2338,945ZM171,968c-1.08,3.409-1.86,4.828-2,10,5.881,4.765,6.944,14.648,15,17,16.082,9.51,33.019-7.128,52-4,22.371,3.687,46.008,17.78,75,10v-1h-1c-5.886-10.112-20.675-13.1-33-17-16.651-5.268-37.714-11.136-56-15-8.016-1.694-16.276,1.845-22,3C187.6,973.3,179.346,968.643,171,968Zm1834,187c11.2-.42,14.39-6.05,23-8,13.7-3.1,17.6,6.13,28,7,3.34-3.7,6.03-2.7,7-7,7.81-12.94,3.69-43.03,23-44,5.54,9.77,7.4,29.76,22,30,5.63-6.46,14.97-9.92,22-15q7.5-7.995,15-16,10.5-.495,21-1c19.86-29.22,42.58-44.89,27-97-17.32-2.35-21.09-14.014-34-18l-42,1c-11.16-2.359-46.3-17.637-59-4-2.71,2.909-2.35,15.751-6,20-4.92,5.72-9.49,4.97-10,16,0.33,0.67.67,1.33,1,2,5.97,1.42,18.36,7.01,21,12,1.4,2.09,1.67,3.47,2,7-5.6,5.02-15.71,28.46-22,29l-1-1v2c-7.8,13.95-.26,38.63-9,51-6.89,9.75-23.8,15.14-28,27C2005.67,1150.33,2005.33,1152.67,2005,1155ZM680,1121c-1.333.67-2.667,1.33-4,2-0.943,9.33,2.283,9.4,7,15,1-.33,2-0.67,3-1v-10C684.53,1123.53,683.723,1122.38,680,1121Zm-24,50v2c-5.123.09-7.926,0.9-10,4-6.932,9.41,4.306,16.73-7,25q-12.5,1.995-25,4c-6.653,2.41-10.182,7.78-16,11q-10.5.495-21,1c-6.795,1.55-25.548,6.15-31,10,0.333,0.67.667,1.33,1,2,6.363,8.23,18.571,6.28,19,21-3.292,2.36-4.551,3.08-11,3-8.319,3.77-20.962,5.93-31,4q-8.5.495-17,1v6c5.958,1.83,8.914,5.24,9,13-5.5,2.85-12.84,14.78-14,24,1.408,1.5,1.044,1.77,3,3q19-1.995,38-4,10.5-3.495,21-7c25.549-5.55,56.257.39,73,7,13.625,5.38,27.826,8.18,39,16,22.533,15.76,45.925,57.31,59,83,8.442,16.59,16.2,34.95,21,53,3.614,13.58,4.754,33.58,19,36,0.667-1.33,1.333-2.67,2-4,2.135-8.35,2.6-51.84-2-60-4.134-7.32-9.9-15.08-14-22q-2-9.495-4-19c-6.269-11.95-13.718-21.82-21-33q-0.5-3-1-6c-1,.33-2,0.67-3,1-12.047-11.52-28.769-31.89-35-48-3.587-9.28-5.479-20.12-7-29q0.5-10.995,1-22c-2.544-14.69-11.794-37.8-18-51-2.927-6.23,1.264-14.04-2-19-1.525-2.32-4.5-3.15-6-6h-9ZM26,1185c6.219,1.99,9.07,3.81,10,11l1,6a15.939,15.939,0,0,0-5,7c-0.333-.67-0.667-1.33-1-2C27.6,1201.93,26.579,1192.57,26,1185Zm761,26c-2.663,3.4-5.263,2.18-7,7v7c6.2,3.03,6.942,6.78,17,7,2-5.54,4.577-6.09,5-14-1.759-1.29-1.864-1.88-4-3Q792.5,1213.005,787,1211Zm-8,62c-1.844,3.31-2.678,3.52-3,9,3.019,2.74,1.238,6.08,6,9,1.333,0.33,2.667.67,4,1,2.4-4.32,3.175-8.26,3-16-2.224-1.28-1.653-1.01-3-3h-7Zm-653,15c3.333,0.33,6.667.67,10,1,5.568,8.5,17.5,13.39,22,22-3.6.86-2.9,1.33-7,2-4.583-5.69-28.46-3.1-37-4a22.315,22.315,0,0,1-2-10c2.523-1.82,2.465-4.19,5-6Q121.5,1290.495,126,1288Zm450,24c-7.334,3.85-19.212.83-28,4-24.221,8.73-53.364,42.08-63,66q-0.5,7.005-1,14c-24.449,81.43,17.529,164.97,70,193,13.382,7.15,39.393,17.46,63,12,37-8.56,79.016-26.85,97-55,7.468-11.69,5.562-24.36,10-40,25.907-91.28-43.8-169.88-107-191Zm728,36c-4.31,2.26-10.37,5.94-14,7-6.73,1.96-12.7-.71-18,2-33.92,17.31-54.52,37.43-72,71-9.24,17.75-11.07,63.92-7,85v18c18.63,66.5,99.95,122.53,195,99,5.29-1.31,10.68-5.41,15-7,3.67-.33,7.33-0.67,11-1,35.9-12.41,81.29-55.7,93-89,11.99-34.1,11.12-78.67-7-105C1471.71,1386.91,1376.25,1347.84,1304,1348ZM144,1453c-1.857,2.61-2.186,1.7-3,6,2.92,1.41,2.212,1.99,6,3,2.737-2.98,5.185-4.93,7-9H144Zm1400,16c-5.94,9.6-5.71,19.85-10,33-3.79,11.6-9.77,24.45-15,37-21.02,50.45-78.56,97.74-139,110-34.74,7.04-106.59-7.39-130-16-21.72-7.99-40.03-20.09-66-10-4.52,8.79-12.28,35.98-5,48,5.9,11.45,14.65,3.38,28,9,13.79,5.81,31.55,7.1,46,14q6.495,0.495,13,1c23.3,9.35,75.88,25.27,103,14,4.33-1.8,6.63,2.9,13,0h22c5.84-1.2,14.63-2.09,21-5,44.38-20.31,101.2-64.96,128-103,18.56-26.35,21.69-65.16,13-99-2.93-11.41,1.04-24.74-9-29A24.242,24.242,0,0,0,1544,1469Zm49,7c-8.84,34.23,64.55,55.78,88,66,10.96,4.78,25.39-5.18,28-10,0.33-2.67.67-5.33,1-8-9.5-7.52-15.84-19.06-26-26C1673.72,1490.98,1610.08,1475.96,1593,1476Zm-770,97h-4c-5.066,9.84-14.425,19.66-25,24-1.93-2.45-6.551-3.25-10-4l-7-12c1.09-8.52-2.366-30.7-13-32-2.7,3.83-1.472,6.61-4,12-4.98,10.62-12.912,8.47-13,24,13.477,9.13,13.072,50.78,2,64-7.605,9.08-15.839,12.59-17,29,9.2,4.89,3.056,20.49,7,32,1.079,3.15,4.147,6.25,6,10,3.506,7.09-4.936,10.26-3,18,1.81,7.23,8.254,17.71,4,29-5.49,14.57-17.668,51.25-11,76,5.633,20.91,38.333,30.69,55,42,15.371,10.43,24.928,33.97,36,49q12.5,10.5,25,21l8,12c-0.522,9.97-9.025,13.96-7,23,2.088,9.32,11.54,8.05,12,22-3.895,3.01-14.778,12.15-12,15,1.515,3.76-.3,2.04,4,3,4.186,5.75,26.179,3.57,34,9,9.922,6.89,20.673,18.04,32,21,11.18,2.92,14.743-8.85,26-7,18.5,3.04,40.207,10.62,60,9,1.92-4.09,3.33-2.95,4-9-16.754-16.77-32.682-32.33-63-31-1-1.33-2-2.67-3-4,3.948-2.77,6-11.51,6-18-8.359-5.33-13.723-13.97-22-18-7.57-3.69-17.784-1.22-22-8-5.16-7.24,1.741-14.43,4-20l6-24,20-24c5.561-7.15,12.682-7.29,21-12,12.525-7.1,29.5-17.71,38-29,11.69-15.54-7-44.12-2-51,4.4-6.05,14.21-8.18,20-13,11.21-9.34,21.7-38.12,19-58-5.09-3.86-6.63-8-15-9-11.68,5.93-28.619,3.53-41,11-4.586,2.77-16.41,16.85-18,22-2.225,7.21,1.169,14.74-2,20-10.021,16.63-28.167,17.93-37,29q-2.5,9.495-5,19c-11.229,5.75-25.057,12.86-38,16-40.616,9.86-74.87-23.54-92-42-0.184-35.7,40.467-70.38,33-111-9.177-3.8-27.259-17.55-23-34q4-8.505,8-17c2.738-10.92-1.493-20.6,3-30C814.841,1600.59,822.714,1601.18,823,1573Zm-358-18c-1.656,4.29-3.049,7.09-3,16,4.778,6.46,21.534,35.08,26,38,10.342,6.76,19.441,10.69,29,16,1.053,6.33,4.172,7.26,6,11,3.126,6.4-3,13.84-2,20h2c5.229,3.18,13.319,1.08,20,0,2.2-5.21,6.34-8.91,14-9,1.73,2.58,5.29,4.48,8,6q0.5,5.505,1,11c7.007,2.24,5.856,7.47,11,11,21.222,14.63,50.079-5.13,70-6,6.312,8.99,29.475,15.77,43,8,18.758-10.78,37.48-33.05,33-64-8-3.33-10.9-12.6-19-15q-17.5,1.995-35,4c-31.087,6.77-64.114,28.53-107,18-24.61-6.04-44.219-17.87-61-32C489.185,1578.05,483.008,1558.23,465,1555Zm1297,39c-2.33.33-4.67,0.67-7,1-5.37,11.84-17.02,14.56-15,32,15.7,4.9,21.03,16.48,33,26,6.25,4.97,21.96,8.16,29,11,9.38,3.79,52.18,7.83,66,4,1.04-.29,14.5-3.12,18-2,4.95,1.58,10.98,6.5,15,9,3.37,2.1,24.44,4.76,27,2,7.35,5.23,16.32,7.22,25,9,7.33-8.56,22.16-8.21,23-25-12.79-7.11-29-12.82-40-20-5.47-3.57-10.93-9.64-17-13-10.04-5.56-23.68-2.98-35-8-10.37-4.6-22.48-12.65-33-17-2.3-.95-31.97,7.45-43,2C1790.54,1596.38,1790.67,1594.02,1762,1594Zm-655,11c-8.58,10.24-8.23,21.52-6,36,2.84,0.75,3.61,3.95,11,4,1.28-2.22,1.01-1.65,3-3,1.46-11.15.49-28.37-4-37h-4ZM701,1717c-7.868,11.49-30.084,28.29-32,44,3.99,2.18,3.35,3.63,10,4q12.5-2.505,25-5,10-9.495,20-19c-0.333-.67-0.667-1.33-1-2C718.463,1729.36,709.491,1722.9,701,1717Zm-451,51c19.008-.2,21.981,5.17,33,10q16.5,0.495,33,1c6.971,12.55,24.327,18.85,30,29,4.69,8.39-1.576,19.22-2,30,7.9,2.68,9.4,8.91,15,13,6.395,4.67,43.517,8.37,55,11,24.48,5.61,29.457-12.13,55-1q0.5,3,1,6c-8.008,6.73-10.36,12.83-11,26,6.093,2.68,10.2,8.89,13,15-13.376,8.55-23.264,22.06-45,22-0.667.33-1.334,0.67-2,1v3h18c4.637,2.02,31.573,18.58,32,20-10.608,7.21-23.266,21.03-21,38,7.05,0.97,20.913,7.65,22,15l-1,3c-5.975,2.18-31.548,19.87-32,27q7,0.495,14,1c9.347-6.04,33.538-8.72,33,10-1.543,1.42-2.41,10.1-3,15-14.038,2.1-21.01,12.56-33,15-12.425-16.71-38.69-26.94-55-40-8.018-6.42-11.735-18.74-18-27-5.314-7-14.621-9.89-22-15-11.944-8.27-17.308-25.35-26-37a195.732,195.732,0,0,0-21-23c-9.338-8.74-25.219-11.87-33-22-3.051-3.97-2.011-8.34-5-13-2.98-4.64-11.672-7.98-15-13q-5.5-16.5-11-33c-4.91-12.13-30.942-60.81-23-75C229.009,1772.84,245.811,1772.33,250,1768Zm785,70c-4.71,3.44-11.1,5.06-16,8-0.48,27.62-5.48,40.6-8,62-5.5,1.08-8.04,2.17-9,8,2.12,1.43,1.83,1.72,3,4,12.67,0.99,21.02,6.33,32,9,5.57,1.35,12.38-1.03,15-2h26c10.57-2.69,28.44-10.44,29-26-7.32-3.55-9.47-7.09-22-7-3.72,6.46-10.09,11.25-21,11-4.55-3.63-7.9-7.11-12-11q-1.005-6-2-12c4.31-1.89,6.81-5.34,9-8q15,0.495,30,1c7.49-11.78,23.67-16.04,34-25-0.33-.67-0.67-1.33-1-2-1.73-2.34.18-.84-3-2C1100.24,1836.31,1066.89,1837.78,1035,1838Zm-706,59c-2.333.33-4.667,0.67-7,1-0.951,3.05-1.462,3.02-2,7,0.333,0.67.667,1.33,1,2,2.61-1.85,5.314-3.08,7-6C328.333,1899.67,328.667,1898.33,329,1897Zm392,20-8,3c-0.333.67-.667,1.33-1,2q2.5,5.505,5,11c7.421,7.66,21.244,12.84,35,11v-2c0.333-1.33.667-2.67,1-4C744.249,1928.61,739.4,1916.91,721,1917Zm336,47v4h3c0.33-1.33.67-2.67,1-4h-4Zm-17,3c-1.28,1.91-1.13,1-2,4h7v-3C1043.33,1967.67,1041.67,1967.33,1040,1967Zm-243,51c-1.333.67-2.667,1.33-4,2-9.417,3.46-21.637,26.51-14,39v1c8.559,0.38,16.392,1.97,27,2,3.156-7.09,11.235-26.83,20-28,1.485,3.14,3.336,4.17,6,3,5.454-.93,12.83-5.65,14-11C832.558,2020.01,817.121,2018.01,797,2018Zm270,61v-4c-8.77-3.46-16.6-9.89-25-12-8.36-2.11-13.74,1.29-20,1-1.11,2.87-1.57,2.71-2,7,7.29,4.09,8.81,7.2,22,7C1049.81,2082.55,1056.6,2079.63,1067,2079Zm-247-12v4h3c1.289-1.76,1.881-1.86,3-4h-6Zm-328,7h6c5.692,7.59,15.564,5.58,16,19-3.541,8.17,7,17.45,6,28-2.313,1.34-2.328,2.26-4,4-12.811-10.8-34.117-13.53-41-30h1c3.383-6.26,11.449-6.9,14-14C490.667,2078.67,491.333,2076.33,492,2074Zm616,214h-5v-4h-2c-14.58-6.5-31.91-3.47-42-14-1.89-1.98-10.81-9.33-8-12-2.76-3.6-4.62-11.8-1-17,1.39-2,6.87-5.93,9-7l19,3c15.02,6.66,32.41,3.44,45,11,0.77,4.83,1.89,6.64,2,13-4.02,2.14-10.79,6.88-13,11C1109.55,2276.29,1108.48,2282.08,1108,2288Z"/>
  <path id="Color_Fill_2" data-name="Color Fill 2" class="cls-4" d="M62,218v4c39.154,17.651,76.139,35.826,110,59,11.458,7.842,19.484,33.918,35,39,2.033-5.028,4.553-6.24,12-6,4.286,4.615,13.09,10.455,18,14l11,2c5.812,3.8,11.167,11.711,17,16,1.624,1.194,8.526-.08,13,2a226.856,226.856,0,0,1,42,26c12.846,10.289,11.834,30.469,20,46,3.592,6.832,10.492,8.084,11,19-10.924,5.844-27.159,5.465-42,9-0.885,3.237-1.109,3.129-3,5-0.008,27.894,17.036,27.663,26,43q0.5,4.5,1,9c4.306,8.144,17.9,20.52,22,31q1,11,2,22c4.338,11.838,20.048,19.985,23,36-2.544,1.4-2.7,2.057-6,3-5.278-7.333-25.35,3.01-26,11q-1,2.5-2,5c-11.024,11.523-45.268,1.549-46,25h2c7.046,3.285,11.492-.246,19,2,8.773,2.624,32.689,11.893,40,12l12-1c5.457,2.365,9.778,7.982,15,11,0.715,5.046,1.083,9.316-3,12-11.887,8.755-31.361,4.812-38,19-4.182,9.012,5.923,13.4,7,22-3.184,1-3.534,1.626-8,2-17.061-17.254-47.4-11.593-77-19-9.24-2.312-17.826-7.984-26-11-9.8-3.614-26.986-4.385-39-7-10.886-2.37-22.044,1.865-31-2-13.45-5.8-34.436-9.286-47-15-5.661-2.575-12.168-9.07-18-12-6.849-3.442-18.962-1.888-27-6l-1-6,9-1c19.976,12.233,39.043-2.013,66,4,9.972,2.224,13.44,10.636,21,14,7.651,3.4,15.977-2.933,24-3,19.384-.163,29.924,5.133,47,3l3-7c-8.312-5.375-11.869-14.38-18-22-8.2-10.193-24.36-16.3-37-22,0.074-8.914.925-21.065-4-25l-13-1c-10.738-5.159-23.586-14.68-37-18l-18,2c-12.048-3.973-22.882-11.411-35-17v-2h15c9.331-4.471,25.362,3.771,36-2l1-3-1-1c-9.39.487-16.767-.331-20-6-4.023-7.081-6.476-17.4-17-18-1.3,1.686-12.376-.4-14-5l18-8c0.81-4.663,1.877-6.864,2-13-6.262-3.936-14.957-7.157-22-11l-24-1c-16.8-3.993-43.035-4.183-45-23l1-3c13.262-3.554,26.62-3.888,44,0,9.255,2.07,18.576-1.606,24-3l39-1,16,2c9.366-2.684,10.529-10.93,25-11,9.059,11.907,30.283,11.487,45,18,4.115,1.821,8.917,7.268,13,9,9.026,3.83,29.212-7.936,30-14-4.094-2.366-7.139-8.524-9-13,6.942-3.907,10.366-14.589,9-24-7.226-3.694-33.356-15.446-48-11-3.289,1-9.251,5.521-13,7l-28,2c-23.348,10.1-59.9,15.886-84,2l-1-6c1.457-1.417,1.005-.764,2-3,14.026,2.081,35.976-3.807,46-10q0.5-3,1-6c-12.968-.079-23.793-7.6-30-11-9.017-4.936-18.965-.763-29-5-6.112-2.581-13.058-7.446-18-10-7.245-3.745-12.21.242-14-9v-5c7.357-1.424,8.905-6.338,15-8,14.722-4.015,42.23,6.207,50,10,3.321,1.621,31,6,31,6,4.023,3.387,9.808,10.646,14,13l22,1c8.316,3.8,13.8,12.642,26,13v-2s-3.868-35.305-5-40c-15.245-4.591-27.051-19.349-40-27-10.948-6.469-28.114-2.9-40-8-19.178-8.231-34.832-17.1-49-25-14.728-8.211-28.853-.157-32-20,5.539-4.518,2.311-14.614,7-20,2.081-2.39,6.3-1.873,8-5C50.567,225.788,45.668,218,62,218ZM1211,752h-4l-9-13c-3.56-11.236,4.36-59.649,7-74V608c3.68-23.263,6.92-44.553,11-66,6.02-31.647-8.21-51.916-8-80-4.5-3.4-14.57-8.727-17-14h12c9.95,6.007,21.72,9.841,37,10,0,0,8.97,32.129,12,36,5.79,7.411,17.39,11.71,22,20,8.27,14.878,6.09,25.7,19,36,15.24,12.147,48.09,20.927,54,41,3.8,7.368,1.01,21.8,0,28-4.96,1.8-5.87,3.7-13,4-2.15-3.431-5.27-3.282-11-3-1.9,4.275-4.95,4.921-7,8-2.73,4.1-1.42,17.75-5,21-4.82,7.57-12.99,4.362-14,16-2.89,5.3-2.37,20,0,24,1.31,2.593,1.44,2.664,4,4,7.67,5.216,12.71-3.465,20-2,1.9,0.382,8,3.422,11,4l22-1,24,8c4.98,9.518,9.56,26.073,13,35,6.31,2.877,10.62,8.054,19,9,9.13,1.03,14.34-7.447,23,1,2.98,2.211,7.83,22.879,6,28-4.21,11.8-3.74,19.877-7,36v26c-1.43,3.833-4.87,20.3-2,27,2.32,5.413,5.03,7.281,5,17-10.29,6.692-10.72,20.085-18,30-10.74,14.63-28.56,28.222-40,46-4.25,6.6-4.36,15.049-10,20-6.41,5.619-15.25,7.514-22,13-6.58,5.345-10.44,18.19-20,20-3.75,1.29-12.68-.77-17,2-3.28,4.31-21.18,32.23-24,33-7.75-6.31-16.17,1.37-24,4-1.79,11.5-30.59,54.12-46,54-1.73-2.34.18-.84-3-2-2.23,5.34-7.04,10.96-10,16-3.27,5.58-6.27,23.92-8,30-5.31,18.67.77,43.21-8,59-4.92,8.86-11.42,14.16-21,20-0.74.45-2.19,3.42-3,1-5.88,10.91-20.81,40.37-12,61,2.2,5.15,5.55,11.77,7,18,4.04,1.95,15.17,5.57,17,12q3,8.505,6,17c3.33,0.33,6.67.67,10,1,14.16-8.39,26.73-12.55,36-23,6.12-6.91,5.82-19.09,12-26,4.88-5.45,11.19-8.35,18-13,4.69-3.2,7.23-10.59,12-14,12.24-8.75,29.3,4.2,37,9,3.38,2.11,23.67-2.74,33,1,5.48,2.19,21.64,6.62,28,12,5.33,4.51,9.58,11.62,15,16,4.4,3.56,11.96,3.17,15,8,0.33,1,.67,2,1,3q-4.005,3-8,6c0.33,2,.67,4,1,6,6.61,0.92,15.26,5.1,19,4,2.34-1.81,1.25-.32,2-4-4.69-1.74-6.86-3.32-7-10l1-1c20.71-2.14,37.28,3.37,39,23-8.83-.75-17.75-3.82-24-3v2c8.83,2.72,8.63,7.86,21,8,5.82-8.09,27.42-3.24,33,1,1.88,2.32,2.38,3.11,3,7-5.84,2.93-13.04,6.52-13,17-49.53-2.68-70.6-51.65-134-39-19.51,3.89-43.22,4.82-59,13q-5.505,4.995-11,10c-8.01,5.45-17.54,7.29-25,13-6.31,4.83-8.27,18.53-13,25-14.94,20.43-33.23,41.88-47,63-8.2,12.57-12.22,26.55-21,38-6.68,8.71-17.73,7.69-27,14-5.78,3.93-10.57,14.42-15,20-4.19,5.27-12.68,7.69-17,13-11.99,14.73-15.58,31.63-21,54-7.75-.58-10.07,5.57-21,6-6.26-7.18-16.08-17.09-19-27-5.84-19.77,7.08-34.92,3-52-3.51-14.69-10.68-23.36-9-43,7.75-4.4,5.54-10.91,19-11,0.67-.33,1.33-0.67,2-1,2.82-8.78,10.59-18.23,14-26v-1s-0.35-49.36-2-53c-5.8-12.83-21.53-23.25-22-40,3.44-2.62,4.28-13.24,3-20q-0.495-9-1-18c-2.24-5.09-7.82-11.26-10-16-2.3-5.02.31-14.18-4-17h-6c-1.21,2.13-1.62,3.35-4,4q-6.5-1.005-13-2c-6.645.87-8.273,5.43-16,6l-11-6c-8.2-8.22-7.2-24.63-17-34-3,.33-6,0.67-9,1-7.194,11.1-18.576,19.08-23,31-5.256,14.16,7.843,37.67-8,41-0.667-.33-1.334-0.67-2-1-0.83-5.63-4.133-7.61-5-12-1.21-6.12,5.11-21.92,6-29,0.17-1.35-5.861-28.12-7-33-2.563-10.98-.616-25.99-10-28q-5-1.005-10-2c-4.231-12.83-22.573-37.35-32-46h-2c-5.758,13.86-23.448,35.17-31,43-9.443-.15-15.544-3.81-22-7-2.7-12.09-17.246-39.65-31-40-1.6,4.16-3.786,6.28-9,7-0.667-.33-1.333-0.67-2-1v-8c3.2-2.96.473-9.22,3-13,1.444-2.16,5.99-5.12,8-7-0.155-10.21-4.555-47.93-8-57,4.558-1.59,7.18-2.15,8-8-0.667-1.67-1.334-3.33-2-5-7.637-1.79-8.873-7.93-13-13-3.561,1.78-3.112,3.06-8,4-4.356-6.45-15.948-8.25-27-8-4.247-7.78-7.508-10.34-9-23,2.795-.47,2.227-4.24,2-10q-4-17.5-8-35c2.078-10.594,6.714-17.857,1-30-14.172-30.115-48.91-39.654-66-67-5.8-9.289-5.6-19.719-13-27v-3c-14.835-15.246-51.691-15.255-64-35-1.936-3.161-2.1-7.623-2-13,5.2-5.537,14.4-11.362,17-19,2.978-8.756-2.042-16.66,3-24,5.206-7.579,12.66-10.336,15-19,4.378-16.215-8.1-29.565,0-43,4.639-7.7,19.318-17.333,21-21,1.725-3.762,6.17-35.2,3-42-6.045-12.964-12-45.443-19-54-5.983-7.312-11.984-10.358-12-24-0.874-4.383-1.44-6.569,5-7,16.2-6.5,26.892,12.368,35,18,11.363,7.893,29.868,9.835,40,19,7.887,7.135,26.142,37.152,36,39,3.67,1.38,22.866-8.986,31-6,15.2,5.581,10.1,27.566,23,30v-6c4.2-2.56,3.923-4.562,11-5,2.649,3.672,9.132,3.716,12,7,8.2,9.392,7.132,24.527,27,13,1.207-10.014-.338-24.922,2-37l7-31c7.153-2.538,9.4-8.815,15-12l28-6a80.312,80.312,0,0,0,8-23c1.914-9.179-2.9-17.483,1-26,3.407-7.438,13.333-8.55,16-16,4.746-13.259-2.413-26.774,5-37,8.534-11.772,23.074-10.451,35-19,1.666-1.194,1.719-4.148,4-5,8.142-3.043,17.766,2.781,23,4,12.283,2.861,21.447-4.11,35-4v2h-1l-26,14c-16.434,12.516-38.014,49.5-45,71-3.81,11.729-.019,27.1-4,40-4.987,16.154-15.034,31.594-20,50-2.977,11.035-4.728,41.5-11,48-3.42,4.643-9.77,5.346-11,10q0.5,1,1,2c-8.356,1.605-7.909,10.988-13,19-7.4,11.65-40.423,25.9-41,40-9.255,2.13-18.54,7.856-29,10-15.933,3.265-27.326-4.64-39-7-21.382-4.322-38.787,12.484-44,25-3.3,7.917-3.237,26.009,0,34l18,30,22,47c6.3,13.763,17.051,23.911,25,36l25,45,23,31c26.8,43.13,48.859,88,78,128,20.906,28.7,30.93,60.87,76,66,9.141,1.04,20.908-3.16,28-5,48.97-12.74,63.39-27.85,90-62,9.17-11.77,25.47-16.7,35-28,18.31-21.72,34.31-43.54,51-67q8.505-6.5,17-13c7.68-9.74,12.56-22.017,21-31,4.71-5.011,10.58-7.6,16-12q18-18.5,36-37c13.97-10.134,27.53-16.308,37-31,12.5-19.387,34.79-39.729,52-55,10.7-9.5,24.56-24.16,19-49-8.56-38.249-37.46-17.2-69-23l-50-7c-10.91-2.637-32.68-1.831-36-12,10.07-6.365-2.08-46.858-8-49v5ZM152,451c-1.423,3.429-2.136,2.532-3,7,5.764,4.615,6.123,20.76,5,29-6.556,2.5-25.7,7.92-28,15v8c3.847,0.942,4.648,1.793,10,2,1.387-2.666,4.469-8.249,7-10,19.892-8.785,59.735,6.07,82-3h18c9.656,3.936,25.252,10.017,37,2q0.5-2.5,1-5a19.945,19.945,0,0,1-4-5c-15.759-1.805-58.811-.89-70-8-1.248-.793-3.737-5.346-5-6-7.385-3.825-17.4,2.257-21-5V462c-1.094-3.6-5.322-7.2-7-11H152Zm95,82c-4.544,2.038-7.951.04-10,5,3.89,2.643,1.39,5.1,4,9,5.574,8.336,22.63,13.356,35,15,3.77-3.438,7.008-5.634,8-12v-6C271.961,541.383,261.8,534.677,247,533Zm77,58-35,1v2c7.639,2.911,7.856,7,20,7h23v-2l1-4c-2.288-1.631-1.643-1.944-5-3ZM874,705c4.074,1.693,3.41,5.4,3,11q2.5,12,5,24l-3,1H852v-2C858.085,733.176,871.732,710.992,874,705ZM251,732c5.5-.008,7.169.671,10,3-3.2.789-2.4,0.954-5,2-1.635-2.027-3.741-1.729-6-3Q250.5,733,251,732Zm138,0c23.6-.846,50.711,12.513,50,35-2.291,1.868-2.423,5.542-4,8-3.014,3.058-6.444,3.251-13,3-5.326-7.611-17.951-10.6-26-18-5.135-4.719-7.977-12.116-13-17C384.482,737.67,387.1,736.63,389,732Zm118,69v36c2.007,4.989,4.67,6.831,5,15-3.129,1.292-2.451,1.9-6,3-5.241,2.937-20.4-3.988-25-7-14.558-9.531-32.427-23.7-46-33-5.366-3.677-11.906-2.94-14-10,10.557-4.837,13.4-12.055,16-25,10.94-.841,23-1.638,24-13-2.358-1.841-1.994-2.745-2-7,2.92-1.413,2.212-1.988,6-3l3,1c2.051,5.484,8.4,16.564,13,20,3.839,2.869,9.7,1.768,13,5,6.048,5.932,1.835,15.506,13,17,1.606-3.2,3.7-4.562,7-6q1,2,2,4C512.494,799.724,512.767,800.676,507,801Zm711-44v4l-6-1v-3h6ZM680,1121c3.967,1.49,4.374,3.45,7,6,0.179,5.31.027,7.89-3,10h-1c-3.04-1.75-5.475-3.68-7-7-1.192-2.64-.617-4.66,1-7C678,1122.33,679,1121.67,680,1121Zm-24,50h9c1.512,2.9,4.394,3.66,6,6,3.431,4.99-.637,12.42,2,19,5.67,14.15,14.826,35.72,18,51q-0.5,10.995-1,22a144.573,144.573,0,0,0,7,29q13,19.005,26,38c1.4,1.6,11.328,11.05,12,9,8.541,13.83,14.794,25.67,22,39q2,9.495,4,19c3.866,6.9,9.753,14.87,14,22,5.787,9.71,3.206,50.77,2,62-2.317,1.2-2.282,1.49-6,2-12.223-17.24-12.29-37-22-57-18.11-37.3-40.945-92.58-73-115-11.173-7.81-25.373-10.63-39-16-16.644-6.56-47.557-12.69-73-7-17.717,3.96-41.543,9.05-61,11q-0.5-3-1-6c4.509-6.37,13.586-19.75,14-27-4.076-2.48-8.607-6.48-9-13h29c8.9-1.72,16.186-4.81,28-5,1.08-3.41,1.86-4.83,2-10-6.44-4.78-13.316-9.18-20-14,0.333-.67.667-1.33,1-2,1.767-2.29,25.876-9.02,30-10h17c9.086-2.41,12.087-9.06,20-12,12.475-4.64,23.446-1.11,31-10,0.548-6.26-1.119-7.71-2-16,2.353-1.62,2.082-1.91,3-5C649.687,1174.55,654.147,1173.45,656,1171Zm131,40q6.5,1.995,13,4c1.041,3.3,1.759,4.15,2,9-4.012,4.83-3.6,8-13,8-3.033-4.17-7.107-4.21-9-10v-7C782.841,1214.17,785.42,1213.21,787,1211Zm-8,62h7c2.4,4.32,3.175,8.26,3,16-3.194,1.55-2.366,2.23-7,3-0.667-.33-1.333-0.67-2-1-1.93-5.99-3.507-6.89-4-15C778.224,1274.72,777.653,1274.99,779,1273Zm-203,39c38.66-.9,77.8,14.42,93,36h-2c-17.191-23.7-71.466-42.33-115-31-21.891,5.7-47.339,30.42-57,49-25.264,48.59-14.214,121.8,6,167q7.5,12,15,24h-1c-35.305-52.71-58.356-144.87-12-206,9.063-11.95,30.185-29.69,45-35C556.793,1312.85,568.689,1315.91,576,1312Zm728,36c59.06-1.25,106.86,17.56,144,40,10.82,6.54,39.59,22.58,44,33h-1c-4.96-6.66-13.17-7.39-19-13-37.75-36.35-145.53-76.42-213-42-42.63,21.75-65,65.44-65,130,0,19.94,1.12,35.84,7,50,28.06,67.58,116.02,104.99,209,75,31.42-10.13,56.16-32.79,74-57,14.14-19.19,37.76-58.74,29-99-3.53-16.21-12.55-28.09-18-41h1c20.06,28.78,25.29,68.5,11,109-11.71,33.19-57.12,76.73-93,89-16.38,5.6-27.39,5.27-47,9-18.41,3.5-57.22,4.92-75-2-57.59-22.4-114.86-71.04-99-156v-22c2.45-7.63,10.66-33.19,15-39,18.32-24.51,35.36-40.5,64-55,5.31-2.69,11.25-.06,18-2C1293.55,1353.98,1299.8,1350.25,1304,1348Zm-634,1c2.956,1.17,3.314,1.74,5,4,0.333,0.33.667,0.67,1,1C672.776,1352.74,671.808,1351.54,670,1349Zm6,5c3.46,2.17,5.663,4,4,6v-1C677.711,1357.33,677.217,1356.92,676,1354Zm8,8h2C684.521,1363.35,685.776,1362.92,684,1362Zm5,5c2.827,1.94,4.59,3.54,6,7h-1C692.333,1371.67,690.666,1369.33,689,1367Zm6,7c19.029,13.88,43.755,73.46,35,115q-3.5,10.995-7,22c-3.1,14.51-2.306,24.6-9,35-14.71,22.85-43.135,35.24-69,47-32.186,14.63-90.223,8.1-108-15h2c11.223,13.27,45.888,24.47,74,19,40.705-7.92,82.384-22.37,100-53,14.469-25.16,20.14-93.88,8-125C714.587,1402.56,701.493,1389.11,695,1374Zm849,95c6.91,0.32,8.94,2.5,15,4,5.19,8.09,4.79,21.61,7,31,11.3,47.96,4.09,69.37-19,102-20.41,28.84-41.28,42.4-69,63l-17,17c-3.21,2.22-7.24.94-9,2-8.47,5.08-17.67,11.71-27,16-14.19,6.53-47.04,7.18-58,6l-35,3q-7.5-2.505-15-5c-39.18-8.65-79.22-14.8-110-28-9.19-3.94-19.42.08-25-4-10.96-8-3.47-47.32,3-53,19.7-12.83,48.12,3.68,65,10,25.69,9.62,100.3,23.2,137,15,56.37-12.6,111.78-60.78,132-109,5.26-12.54,11.18-25.4,15-37C1538.33,1488.85,1537.86,1478.56,1544,1469ZM465,1555c17.981,3.1,24.23,23.12,36,33,16.817,14.12,36.368,25.94,61,32,43.745,10.76,76.3-12.41,107-19,23.451-5.03,47.505-3.51,54,15,8.586,17.33-12.138,43.1-20,49-9.9,7.43-20.8,21.07-42,14-5.776-1.93-12.255-14.16-23-10-20.459,7.92-36.8,12.89-63,6-1.877-7.24-5.239-6.61-9-11q-1-5.505-2-11c-3.457-3.84-6.625-5.87-14-6a16.215,16.215,0,0,1-10,9c-5.7,3.11-13.5,1.39-19,0v-2c-1.719-4.42.933-6.07,2-9,2.479-6.82-4.536-16.4-7-20-7.883-7.79-17.471-9.36-28-16-1.916-1.21-25.236-35.52-26-38C459.709,1563.56,463.907,1557.75,465,1555Zm52,3c4.147,2.71,19.175,17.81,17,19C529.058,1570.2,520.406,1566.08,517,1558Zm518,280h54c8.42,4.13,19.09,6.18,33,8,0.33,0.67.67,1.33,1,2-0.33.67-.67,1.33-1,2-2.31,4.36-34.35,24.84-41,25h-22c-3.18,1.4-7.8,4.61-9,10l3,9c3.39,7.93,8.99,11.41,21,11,5.3-7.29,9.67-11.34,23-11,1.65,2.24,2.88,2.25,6,3,2.34,4.05,3.76,4.21,4,11-7.25,3.85-12.19,14.6-21,17-22.71,6.2-62.47,4.3-81-6-1.88-2.32-2.38-3.11-3-7,3.52-1.27,7.64-3.22,9-7,3.56-7.04-1.18-8.11,1-15a151.236,151.236,0,0,0,7-44C1023.85,1843.38,1030.39,1841.32,1035,1838Zm22,126h4v3c-1.33.33-2.67,0.67-4,1v-4Zm-17,3h4c0.33,1.33.67,2.67,1,4h-7v-3C1038.67,1967.67,1039.33,1967.33,1040,1967Z"/>
  <path id="Color_Fill_1" data-name="Color Fill 1" class="cls-5" d="M1211,752q1.5-22,3-44h3c2.09,8.551,13.48,33.578,10,44-0.99,2.972-3.87,4-5,8,23.12,11.154,57.11,10.731,86,16,28.87,5.265,55.11-12.808,67,16,3.94,9.555,2.71,29.211-1,38-9.97,23.619-52.6,49.168-68,73-9.49,14.682-23.02,20.869-37,31q-18,18.5-36,37c-6.06,4.912-13.26,7.858-18,14-28.62,37.05-56.89,73.29-87,109-9.53,11.3-25.83,16.23-35,28-26.53,34.03-41.09,49.4-90,62-7.2,1.85-18.746,5.91-28,5-44.876-4.4-55.437-37.71-76-66-29.1-40.03-51.243-84.84-78-128l-23-31-25-45c-7.931-12.1-18.711-22.229-25-36-8.8-19.281-16.293-38.43-27-56-6.926-11.365-20.637-26.032-15-49,3.874-15.783,22.265-35.712,46-31l23,7c15.643,3.436,43.079-4.067,45-15,11.531-12.808,31.494-20.574,41-35l4-13c2.882-3.507,7.87-5.191,9-8q-0.5-1-1-2c0.919-.125,8.908-5.895,12-8l16-70,14-28c3.991-12.891.172-28.276,4-40,12.536-38.4,38.01-69.268,72-87h200c5.51,10.926,17.04,5.509,17,24-4.4,9.769,12.27,46.931,8,70q-4.995,24.5-10,49v36q-0.495,19-1,38c-2.9,16.54-4.11,34.026-7,48C1194.62,729.373,1198.23,749.248,1211,752ZM874,705c-4.173,11.457-16.994,21.857-22,36h29q0.5-3,1-6c-4.313-7.122-5.057-18.983-5-30h-3Zm344,56v-4h-6v3h2ZM581,1314c64.216-.23,128,58.95,141,108,6.458,24.36,6.218,52.37,1,76-3.892,17.63-2.725,29.98-9,44-9.444,21.11-54.34,46.45-80,52-95.381,20.64-132.457-43.63-149-113-6.733-28.23-8.79-69.79,2-97,11.058-27.89,33.832-55.6,62-66Q565,1316.005,581,1314Zm736,39c71.18-1.07,160.45,39.57,186,83,11.69,19.88,12.88,58.65,5,84-14.17,45.54-52.71,86.83-98,101-114.1,35.71-242.85-26.98-215-160q7.005-22.005,14-44c12.69-28.49,39.22-48.52,70-59Q1298.005,1355.5,1317,1353Z"/>
</svg>
