<svg id="Layer_1" data-name="Layer 1" xmlns="http://www.w3.org/2000/svg" viewBox="0 0 994.23 994.23"><defs><style>.cls-1{fill:#9f2f2f;}.cls-2{fill:#efe9e7;}</style></defs><title>Untitled-2 [Recovered]</title><path class="cls-1" d="M907,281.67V713.46a26.34,26.34,0,0,1-52.67,0V281.67a26.35,26.35,0,0,1,26.33-26.33c.27,0,.54,0,.81,0a26.14,26.14,0,0,1,10.86,2.69v0a26.16,26.16,0,0,1,14.25,18.87A24.41,24.41,0,0,1,907,281.67Z"/><path class="cls-1" d="M153.82,281.19V713.46a26.34,26.34,0,0,1-52.67,0V281.67a2.42,2.42,0,0,1,0-.38v-.19a26.33,26.33,0,0,1,52.23-4.16A24.39,24.39,0,0,1,153.82,281.19Z"/><path class="cls-1" d="M523,946.74a26.44,26.44,0,0,1-19.2,12.8h0a31.05,31.05,0,0,1-3.47.2A26.13,26.13,0,0,1,487,956.1l-369.29-217h0l-2.94-1.73a26.35,26.35,0,0,1,26.71-45.42l7.69,4.5,4.69,2.77L476.08,888.61l27.71,16.26,0,0,9.89,5.81a26.39,26.39,0,0,1,9.33,36Z"/><path class="cls-1" d="M899,732.26a25.81,25.81,0,0,1-6.21,5.09L520.55,956.12a26.27,26.27,0,0,1-13.33,3.62,29,29,0,0,1-3.36-.2h0a26.34,26.34,0,0,1-10-48.82l9.94-5.83,21-12.34L854.29,698.89,866.11,692A26.33,26.33,0,0,1,899,732.26Z"/><path class="cls-1" d="M507.77,68.31a23.86,23.86,0,0,1-5.2,8.72s0,.07-.08.11A25.36,25.36,0,0,1,497,81.62l-11.29,7L483.52,90l-136,84.3-53.08,32.87L177.69,279.48l-.1,0-12.83,8-10.94,6.77-7.74,4.8-2,1.22-2.34,1.45c-.12.08-.21.11-.33.19h0a26.58,26.58,0,0,1-13.92,3.85,26.38,26.38,0,0,1-10.6-2.13,26,26,0,0,1-11.57-9.46,24.17,24.17,0,0,1-4-11.23c-.06-.55-.1-1.11-.12-1.64a23.94,23.94,0,0,1,1.07-8.22c0-.07,0-.15.08-.23a9.09,9.09,0,0,1,.51-1.37A1.62,1.62,0,0,1,103,271a24.84,24.84,0,0,1,6.09-8.77l.09-.08a28.24,28.24,0,0,1,4-3.05l11.28-7,53.12-32.91,116.83-72.36L347.5,114,468.44,39.05a27.19,27.19,0,0,1,28.67.07,3.73,3.73,0,0,1,.39.25,24.83,24.83,0,0,1,10.27,28.94Z"/><path class="cls-1" d="M878.53,297.44l-6.1,3.93-18.14,11.69L524.8,525.4l-9.19,5.93a26.29,26.29,0,0,1-14.26,4.2,26,26,0,0,1-3.19-.19s0,0,0,0a26.32,26.32,0,0,1-20.81-36.94v0a0,0,0,0,1,0,0s0,0,0-.08,0,0,0,0,0,0,0-.06a26.27,26.27,0,0,1,9.65-11.09l8.88-5.74h0l0,0,1.56-1L816.79,274.56h0L850,253.17a26.33,26.33,0,0,1,31.43,2.19,25.27,25.27,0,0,1,5,5.68A26.34,26.34,0,0,1,878.53,297.44Z"/><path class="cls-1" d="M520.72,523a25.78,25.78,0,0,1-21.39,12.4h-.71a3.62,3.62,0,0,1-.46,0s0,0,0,0a25.67,25.67,0,0,1-12.38-3.45l-8.22-4.75-1.45-.84L364.87,461.87l-13.22-7.68-.89-.5L346.09,451l-.75-.4-31.63-18.39L303.07,426,190.69,361l-30.3-17.58-1.16-.67-5.41-3.14-4.69-2.71-9.54-5.53-10.08-5.83c-.61-.37-1.24-.75-1.81-1.15A25.08,25.08,0,0,1,117,306.11a20.9,20.9,0,0,1-.14-2.49,24.54,24.54,0,0,1,1.3-7.55c0-.08,0-.16.08-.25a13,13,0,0,1,.49-1.35,3,3,0,0,1,.17-.46,20.3,20.3,0,0,1,1.53-3,25.76,25.76,0,0,1,5.41-6.45h0a25.94,25.94,0,0,1,27.9-3.36c.53.25,1.06.54,1.58.84l9.36,5.44,25.93,15h.08l105.44,61.15,6.86,4,28.49,16.52,7.13,4.15,10.16,5.88,5.24,3.05L409,429l5.66,3.3,82.94,48.07,1,.61s0,0,0,0l1.36.78,2.67,1.53h0l8.93,5.2A25.08,25.08,0,0,1,520.72,523Z"/><polygon class="cls-2" points="476.08 526.3 476.08 888.61 153.82 699.2 153.82 339.58 159.23 342.72 160.4 343.39 190.69 360.97 303.07 426.03 313.71 432.19 345.34 450.56 346.09 450.97 350.76 453.69 351.65 454.19 364.87 461.87 476.08 526.3"/><polygon class="cls-2" points="854.29 313.06 854.29 698.89 524.8 892.55 524.8 525.4 854.29 313.06"/><path class="cls-1" d="M524.8,506.41V925.2c0,14.1-10.91,25.55-24.35,25.55a23.62,23.62,0,0,1-18-8.39,26.05,26.05,0,0,1-6.37-17.16V506.41a25.82,25.82,0,0,1,1.24-8,.06.06,0,0,1,0,0s0,0,0-.08,0,0,0,0,0,0,0-.06A24.48,24.48,0,0,1,496,481.34h0l0,0h0a15,15,0,0,1,2.55-.38h0c.61-.06,1.22-.08,1.85-.08s1,0,1.53,0h0c11.27.74,20.44,9.5,22.43,20.9A24.69,24.69,0,0,1,524.8,506.41Z"/><polygon class="cls-2" points="816.79 274.56 497.55 480.33 414.61 432.26 408.95 428.96 354.1 397.22 348.85 394.17 338.69 388.29 331.56 384.14 303.07 367.63 296.21 363.66 190.77 302.51 190.69 302.51 164.76 287.47 177.59 279.52 177.69 279.48 294.42 207.16 347.5 174.29 483.52 89.99 485.96 91.35 493.47 95.52 532.94 117.35 539.4 120.96 635.77 174.29 671.65 194.19 674.25 195.59 688.36 203.44 723.78 223.04 816.79 274.56"/><path class="cls-1" d="M898.28,276.79v.13a27.73,27.73,0,0,1-3.16,10.78,26.38,26.38,0,0,1-22.29,13.67h-.4a25.54,25.54,0,0,1-13.06-3.26l-5.08-2.81-8.18-4.51-.09,0-29.21-16.19h0l-93-51.52-35.43-19.6-14.1-7.86-2.6-1.39-35.88-19.9L539.4,121l-6.46-3.61L493.47,95.52,486,91.35,483.52,90l-2.06-1.12a26.74,26.74,0,0,1-10.41-36,26.21,26.21,0,0,1,26.18-13.5l.27,0a24.94,24.94,0,0,1,9.3,3.07l12.55,7,39.46,21.85,6.49,3.58,70.47,39.05,35.88,19.83,2.6,1.39,14.1,7.82,35.43,19.6L884.7,251.66a26.52,26.52,0,0,1,7.59,6.39A27,27,0,0,1,898.28,276.79Z"/><polygon class="cls-1" points="116.39 715.69 490.1 689 888.6 471.63 890.5 740.48 524.42 925.42 116.39 715.69"/><path class="cls-1" d="M684.88,271.88q19,1,23.58,0,6.24-1.55,9.66.71,3.6,2.35-2.7,6.67L654.78,321.3q-5.56,3.39-7.21,3.83a4.78,4.78,0,0,1-3.82-1q-2.88-1.89,1.84-8.87,17.63-25.81,15.18-51.23Q658,238.58,633,222.17q-22-14.41-54.88-17.58t-70,6.61a254,254,0,0,0-68,28.66Q387.49,272,382.82,310.52t30.12,61.34q23.6,15.47,58.78,19.08t65.46-2.1q8.25-1.62,11.14.27,4,2.59-.48,5.31-5.37,3.27-37.21,5.38a225.39,225.39,0,0,1-65.38-5.58q-33.53-7.7-59.12-24.46Q356,350,344.66,322.65t.54-54.73q11.91-27.35,49.31-50.18,36.64-22.4,81.5-30.26a246.28,246.28,0,0,1,89.09.5q44.22,8.37,74,27.87a121,121,0,0,1,27.36,24.37A116.74,116.74,0,0,1,684.88,271.88Z"/></svg>