<svg id="Group_69" data-name="Group 69" xmlns="http://www.w3.org/2000/svg" width="78.403" height="90.599" viewBox="0 0 78.403 90.599">
  <g id="Group_60" data-name="Group 60" transform="translate(36.248 63.711)">
    <line id="Line_133" data-name="Line 133" y1="21.14" x2="36.095" transform="translate(2.87 2.874)"/>
    <path id="Path_219" data-name="Path 219" d="M78.544,159.888a2.874,2.874,0,0,1-1.451-5.356l36.095-21.139a2.875,2.875,0,1,1,2.9,4.963L80,159.495A2.864,2.864,0,0,1,78.544,159.888Z" transform="translate(-75.67 -133)" fill="#35cb93"/>
  </g>
  <g id="Group_61" data-name="Group 61" transform="translate(0.321 0)">
    <line id="Line_134" data-name="Line 134" y1="21.14" x2="36.095" transform="translate(2.87 2.874)"/>
    <path id="Path_220" data-name="Path 220" d="M3.544,26.888a2.874,2.874,0,0,1-1.451-5.356L38.182.393a2.875,2.875,0,1,1,2.9,4.963L4.991,26.495A2.835,2.835,0,0,1,3.544,26.888Z" transform="translate(-0.67 0)" fill="#35cb93"/>
  </g>
  <g id="Group_62" data-name="Group 62" transform="translate(72.333 21.269)">
    <line id="Line_135" data-name="Line 135" x1="0.321" y1="41.829" transform="translate(2.874 2.879)"/>
    <path id="Path_221" data-name="Path 221" d="M154.195,91.982a2.878,2.878,0,0,1-2.874-2.85L151,47.3a2.877,2.877,0,0,1,2.85-2.9h.024a2.878,2.878,0,0,1,2.874,2.85l.321,41.829a2.877,2.877,0,0,1-2.85,2.9A.043.043,0,0,1,154.195,91.982Z" transform="translate(-151 -44.4)" fill="#35cb93"/>
  </g>
  <g id="Group_63" data-name="Group 63" transform="translate(0 21.269)">
    <line id="Line_136" data-name="Line 136" x1="0.321" y1="41.829" transform="translate(2.874 2.879)"/>
    <path id="Path_222" data-name="Path 222" d="M3.195,91.982a2.878,2.878,0,0,1-2.874-2.85L0,47.3a2.877,2.877,0,0,1,2.85-2.9h.024a2.878,2.878,0,0,1,2.874,2.85l.321,41.829a2.877,2.877,0,0,1-2.85,2.9A.043.043,0,0,1,3.195,91.982Z" transform="translate(0 -44.4)" fill="#35cb93"/>
  </g>
  <g id="Group_64" data-name="Group 64" transform="translate(0.316 63.711)">
    <line id="Line_137" data-name="Line 137" x2="36.095" y2="21.14" transform="translate(2.874 2.874)"/>
    <path id="Path_223" data-name="Path 223" d="M39.629,159.888a2.913,2.913,0,0,1-1.451-.393L2.083,138.355a2.875,2.875,0,1,1,2.9-4.963L41.08,154.532a2.874,2.874,0,0,1-1.451,5.356Z" transform="translate(-0.66 -133)" fill="#35cb93"/>
  </g>
  <g id="Group_65" data-name="Group 65" transform="translate(36.243 0)">
    <line id="Line_138" data-name="Line 138" x1="36.095" y1="21.14" transform="translate(2.874 2.874)"/>
    <path id="Path_224" data-name="Path 224" d="M114.629,26.888a2.913,2.913,0,0,1-1.451-.393L77.083,5.355a2.875,2.875,0,1,1,2.9-4.963l36.095,21.14a2.874,2.874,0,0,1-1.451,5.356Z" transform="translate(-75.66 0)" fill="#35cb93"/>
  </g>
  <g id="Group_66" data-name="Group 66" transform="translate(36.818 43.625)">
    <line id="Line_139" data-name="Line 139" y1="40.622" transform="translate(2.874 2.874)"/>
    <path id="Path_225" data-name="Path 225" d="M79.734,137.44a2.876,2.876,0,0,1-2.874-2.874V93.944a2.874,2.874,0,0,1,5.748,0v40.622A2.873,2.873,0,0,1,79.734,137.44Z" transform="translate(-76.86 -91.07)" fill="#35cb93"/>
  </g>
  <g id="Group_67" data-name="Group 67" transform="translate(36.891 21.96)">
    <line id="Line_140" data-name="Line 140" y1="22.471" x2="35.635" transform="translate(2.873 2.877)"/>
    <path id="Path_226" data-name="Path 226" d="M79.89,74.066a2.876,2.876,0,0,1-1.538-5.308l35.635-22.471a2.877,2.877,0,0,1,3.071,4.867L81.423,73.625A2.907,2.907,0,0,1,79.89,74.066Z" transform="translate(-77.013 -45.843)" fill="#35cb93"/>
  </g>
  <g id="Group_68" data-name="Group 68" transform="translate(0.466 20.919)">
    <line id="Line_141" data-name="Line 141" x1="35.213" y1="22.208" transform="translate(2.873 2.879)"/>
    <path id="Path_227" data-name="Path 227" d="M39.059,71.631a2.842,2.842,0,0,1-1.528-.445L2.313,48.978a2.877,2.877,0,0,1,3.071-4.867L40.6,66.318a2.88,2.88,0,0,1-1.542,5.312Z" transform="translate(-0.973 -43.67)" fill="#35cb93"/>
  </g>
  <path id="Path_228" data-name="Path 228" d="M31.043,114.816l-.034.024-.019-.081.024-.024.029.081.134-.11,2.29-1.787-.623-3.257-2.975-1.437-.072-.034v-.081l-.062-3.655-2.467-1.878-2.462,1.782L22.3,101.59l-2.453.92-.024,3.684.043,0-.01.053,0,.029-.024.01h-.01v-.086l-3.061.283L16.16,109.5l2.429,2.821v-.01l.014-.034.043.067-.01.034-.048-.057,0,0-1.313,3.123,1.71,2.855,2.951-.168.11,0-.019-.048.067.01.019.034-.067,0,.053.134,1.37,3.478,2.73.537,1.3-2.85.086-.182-.043-.024.038-.057.034.01-.029.067.192.081,2.9,1.293,1.691-2.189-1.255-3.406Zm-6.266.68a4.273,4.273,0,0,1-2.9-4.235c.053-1.945,1.432-3.2,3.09-2.8a4.269,4.269,0,0,1,2.9,4.235C27.815,114.634,26.435,115.894,24.778,115.5Z" transform="translate(-8.419 -52.925)" fill="#35cb93"/>
  <path id="Path_229" data-name="Path 229" d="M53.7,101.769l-.024.019-.014-.057.014-.014.024.053.091-.072,1.547-1.207-.422-2.2-2.007-.968-.048-.024v-.057l-.043-2.467-1.662-1.269-1.662,1.2-1.7-1.868-1.653.623-.014,2.486.029,0,0,.034,0,.019-.019,0h0v-.057l-2.065.192-.4,2.041,1.638,1.9v0l.01-.024.029.043,0,.024-.034-.038v0l-.886,2.108,1.154,1.926,1.988-.11.072,0-.01-.034.043,0,.014.024-.043,0,.038.091.925,2.347,1.844.359.877-1.921.057-.125-.029-.014.029-.038.019.01-.019.048.129.057,1.954.872L54.6,104.2l-.848-2.3Zm-4.23.455a2.876,2.876,0,0,1-1.954-2.855c.034-1.313.968-2.156,2.084-1.887a2.876,2.876,0,0,1,1.954,2.855C51.516,101.645,50.587,102.492,49.466,102.224Z" transform="translate(-22.746 -48.367)" fill="#35cb93"/>
  <path id="Path_230" data-name="Path 230" d="M118.563,84.391a8.9,8.9,0,0,1-2.338,5.791,2.53,2.53,0,0,1-.474.374l-20.574,12.6a4.671,4.671,0,0,0-.24,1.36c-.014.278-.038.8.728.364l15.909-9.748c1.49-.915,3.655-1.164,3.506,1.887a8.9,8.9,0,0,1-2.338,5.791,2.531,2.531,0,0,1-.474.374l-13.9,8.517a4.671,4.671,0,0,0-.24,1.36c-.014.278-.038.8.728.364l11.094-6.8c.819-.5,1.447-.163,1.4.757a3.6,3.6,0,0,1-1.562,2.572l-11.118,6.812c-1.49.915-3.655,1.164-3.506-1.887a8.9,8.9,0,0,1,2.338-5.791,2.53,2.53,0,0,1,.474-.374l13.9-8.517a4.672,4.672,0,0,0,.24-1.36c.014-.278.038-.8-.728-.364l-15.913,9.743c-1.49.915-3.655,1.164-3.506-1.887a8.9,8.9,0,0,1,2.338-5.791,2.53,2.53,0,0,1,.474-.374l20.574-12.6a4.672,4.672,0,0,0,.24-1.36c.014-.278.038-.8-.728-.364l-11.094,6.8c-.819.5-1.447.163-1.4-.757a3.6,3.6,0,0,1,1.562-2.572L115.052,82.5C116.546,81.589,118.711,81.335,118.563,84.391Z" transform="translate(-47.911 -42.663)" fill="#35cb93"/>
</svg>
