<svg xmlns="http://www.w3.org/2000/svg" viewBox="0 0 290.78 160"><defs><style>.cls-1{fill:#fff;}</style></defs><title>Infinite</title><g id="Layer_2" data-name="Layer 2"><g id="Layer_6" data-name="Layer 6"><path class="cls-1" d="M290.78,82.43c0,42.77-33.72,77.57-75.15,77.57a74.47,74.47,0,0,1-61-32.34,15.53,15.53,0,0,1,3.4-21.21c.34-.24.68-.47,1-.69a14.42,14.42,0,0,1,19.5,4.2c.69,1,1.4,1.93,2.15,2.85a45.12,45.12,0,0,0,34.91,16.79c25.2,0,45.7-21.16,45.7-47.17s-20.5-47.17-45.7-47.17A44.69,44.69,0,0,0,187.78,45c-.07.06-.14.11-.21.18a39.55,39.55,0,0,0-5,5.33c-2.83,3.45-5.68,7.51-7.64,10.42l-.11.18c-.87,1.28-1.54,2.34-2,3l-.27.41a3.26,3.26,0,0,0-.19.3l-2,3.08L150.46,98.1l-.22-.2-7,10.55,0,.08-3.7,6.08-.24.43L132.75,125a3.53,3.53,0,0,1-.21.32l0,.06c-.45.59-.92,1.16-1.4,1.73v0a73.48,73.48,0,0,1-56.54,26.8C33.44,153.9,0,119.38,0,77S33.44,0,74.54,0a73.87,73.87,0,0,1,60.51,32.08,15.39,15.39,0,0,1-3.37,21c-.29.22-.58.42-.88.61a14.3,14.3,0,0,1-19.49-4.09c-.83-1.18-1.7-2.33-2.62-3.41A44.72,44.72,0,0,0,74.54,30.15c-25,0-45.33,21-45.33,46.81s20.34,46.79,45.33,46.79A44.38,44.38,0,0,0,102.18,114c.07-.06.13-.1.2-.17a37.21,37.21,0,0,0,4.41-4.59c3-3.57,6.06-8,8.15-11a1.88,1.88,0,0,1,.12-.18c.86-1.27,1.52-2.31,1.93-2.94.11-.17.19-.3.27-.41l.19-.3,2-3,19.82-30.09.05,0,7-10.63,0-.08.81-1.33,2.92-4.81C163.44,20,188.4,4.86,215.63,4.86,257.06,4.86,290.78,39.66,290.78,82.43Z"/></g></g></svg>