<svg xmlns="http://www.w3.org/2000/svg" viewBox="0 0 224.65 274.28">
    <defs>
        <style>
            .cls-1 {
                fill: #568EC1;
            }
        </style>
    </defs>
    <title>ODDZ LOGO WHITE</title>
    <g id="Layer_2" data-name="Layer 2">
        <g id="Layer_6" data-name="Layer 6">
            <path class="cls-1"
                d="M224.65,165.47c0,60-50.39,108.81-112.32,108.81S0,225.47,0,165.47c0-35,17.51-68,46.83-88.32a22.46,22.46,0,0,1,30.7,4.93,20.88,20.88,0,0,1-5.07,29.73A65.5,65.5,0,0,0,44,165.47c0,36.48,30.64,66.18,68.31,66.18s68.3-29.7,68.3-66.18a64.73,64.73,0,0,0-14.17-40.34l-.24-.29c-4.77-5.75-16-13.72-22.82-18.34l-.26-.16c-1.86-1.26-3.38-2.23-4.3-2.83l-.59-.38c-.27-.18-.42-.27-.43-.29l-4.47-2.94L50.72,45.45c-7.6-5-10.94-13.44-8.46-21.39S52.51,10.23,62,9.16l78.92-9c9.51-1.1,18.77,2.85,23.57,10a18,18,0,0,1-1.7,22.53L142.91,55,158.3,65.13l.12.07,8.89,5.41C202.74,89.89,224.65,126,224.65,165.47Z" />
        </g>
    </g>
</svg>