<svg xmlns="http://www.w3.org/2000/svg" viewBox="0 0 664.79 185.65"><defs><style>.cls-1{fill:none;stroke:#fff;stroke-miterlimit:10;stroke-width:5.63px;}</style></defs><title>Asset 2</title><g id="Layer_2" data-name="Layer 2"><g id="Layer_3" data-name="Layer 3"><path class="cls-1" d="M152.94,91.76c0,40.78-22.18,77.94-69.15,77.94C41,169.7,16,135.75,16,92.83,16,50.54,40.09,16,85.32,16,127.07,16,152.94,48.19,152.94,91.76Zm-124.38.43c0,34.38,19.35,66.83,55.89,66.83,39.36,0,55.88-31.6,55.88-67.05,0-34.81-18.7-65.34-55.45-65.34C45.74,26.63,28.56,58.44,28.56,92.19Z"/><path class="cls-1" d="M83.79,182.84c-47.67,0-81-37-81-90,0-53.84,33.15-90,82.5-90,47.55,0,80.76,36.57,80.76,88.94C166.08,137.09,140.64,182.84,83.79,182.84ZM84.88,39.76C53,39.76,41.7,66.84,41.7,92.19c0,25.86,13.37,53.7,42.75,53.7,38.58,0,42.75-37.71,42.75-53.92C127.2,67.89,116.12,39.76,84.88,39.76Z"/><path class="cls-1" d="M203.57,18.09H254c41.75,0,70.67,28.61,70.67,73.45,0,44.64-28.27,76-70.89,76H203.57Zm11.74,138.8h36.75c40.23,0,60-27.76,60-64.7,0-32.89-17.83-63.43-60-63.43H215.31Z"/><path class="cls-1" d="M253.8,180.7H190.44V5H254c24.27,0,45.15,8.26,60.39,23.88s23.42,37.38,23.42,62.71C337.83,144,303.27,180.7,253.8,180.7Zm-25.35-36.94h23.61c42.32,0,46.88-36.07,46.88-51.57,0-11.8-3.38-50.29-46.88-50.29H228.45Z"/><path class="cls-1" d="M376.88,18.09h50.45C469.08,18.09,498,46.7,498,91.54c0,44.64-28.27,76-70.89,76H376.88Zm11.74,138.8h36.75c40.23,0,60-27.76,60-64.7,0-32.89-17.83-63.43-60-63.43H388.62Z"/><path class="cls-1" d="M427.11,180.7H363.74V5h63.59c24.27,0,45.15,8.26,60.39,23.88s23.41,37.38,23.41,62.71C511.13,144,476.58,180.7,427.11,180.7Zm-25.36-36.94h23.62c42.31,0,46.88-36.07,46.88-51.57,0-11.8-3.38-50.29-46.88-50.29H401.75Z"/><path class="cls-1" d="M531.05,158l98.72-129.2h-93.5V18.09H643.69v10L545.62,156.89h100l-2,10.68H531.05Z"/><polygon class="cls-1" points="654.64 180.7 517.92 180.7 517.92 153.51 603.21 41.9 523.13 41.9 523.13 4.95 656.83 4.95 656.83 32.55 572.13 143.76 661.41 143.76 654.64 180.7"/></g></g></svg>