<svg id="svg" xmlns="http://www.w3.org/2000/svg" xmlns:xlink="http://www.w3.org/1999/xlink" width="400"
    height="449.9290780141844" viewBox="0, 0, 400,449.9290780141844">
    <g id="svgg">
        <path id="path0"
            d="M193.228 0.509 C 193.055 0.789,191.278 5.321,189.279 10.580 C 178.054 40.114,170.990 53.007,160.015 63.981 C 144.963 79.033,136.732 79.603,97.400 68.315 C 51.592 55.168,34.701 56.563,21.865 74.551 C -0.862 106.400,-6.343 157.284,7.722 205.855 C 26.287 269.972,80.907 346.802,147.861 402.979 C 150.702 405.362,158.034 412.753,164.154 419.401 C 181.957 438.740,190.912 445.721,201.550 448.553 C 207.655 450.178,203.135 453.889,255.739 404.060 L 303.535 358.785 307.690 352.300 C 309.974 348.734,318.574 335.730,326.801 323.404 C 349.738 289.036,359.488 273.065,370.272 252.199 C 407.230 180.687,409.416 124.558,377.109 76.596 C 361.631 53.617,347.443 51.017,300.142 62.490 C 239.472 77.206,230.152 73.007,207.403 20.709 C 204.417 13.844,201.147 6.385,200.136 4.133 L 198.298 0.039 195.920 0.019 C 194.612 0.009,193.401 0.229,193.228 0.509 "
            stroke="none" fill="#222A68" fill-rule="evenodd"></path>
    </g>
</svg>