<svg xmlns="http://www.w3.org/2000/svg" viewBox="0 0 102.24 124.83"><defs><style>.cls-1{fill:#578ec2;}</style></defs><title>Ring Blue</title><g id="Layer_2" data-name="Layer 2"><g id="Layer_8" data-name="Layer 8"><path class="cls-1" d="M102.24,75.31c0,27.31-22.93,49.52-51.12,49.52S0,102.62,0,75.31a49.1,49.1,0,0,1,21.31-40.2,10.24,10.24,0,0,1,14,2.24A9.51,9.51,0,0,1,33,50.89,29.8,29.8,0,0,0,20,75.31c0,16.6,13.95,30.12,31.09,30.12S82.21,91.91,82.21,75.31A29.42,29.42,0,0,0,75.76,57a.69.69,0,0,0-.11-.13c-2.17-2.62-7.28-6.25-10.38-8.35l-.13-.07c-.84-.57-1.53-1-2-1.29l-.27-.18-.2-.12-2-1.34L23.08,20.69c-3.45-2.29-5-6.12-3.84-9.74s4.66-6.29,9-6.78L64.13.08A11.34,11.34,0,0,1,74.85,4.62a8.2,8.2,0,0,1-.77,10.26L65,25l7,4.62,0,0,4,2.46A49.23,49.23,0,0,1,102.24,75.31Z"/></g></g></svg>