<svg id="Layer_1" data-name="Layer 1" xmlns="http://www.w3.org/2000/svg" viewBox="0 0 994.23 994.23"><defs><style>.cls-1{fill:#9f2f2f;}.cls-2{fill:#efe9e7;}</style></defs><title>Illustration Ui</title><path class="cls-1" d="M913.32,275.26V721.13a27.19,27.19,0,0,1-54.38,0V275.26a27.21,27.21,0,0,1,27.19-27.19c.28,0,.55,0,.83,0a27.08,27.08,0,0,1,11.22,2.78v0a27,27,0,0,1,14.71,19.49A25.18,25.18,0,0,1,913.32,275.26Z"/><path class="cls-1" d="M135.62,274.77V721.13a27.19,27.19,0,0,1-54.38,0V275.26a2.61,2.61,0,0,1,0-.39v-.2a27.19,27.19,0,0,1,53.93-4.29A25,25,0,0,1,135.62,274.77Z"/><path class="cls-1" d="M516.87,962a27.27,27.27,0,0,1-19.82,13.21h0a30.89,30.89,0,0,1-3.59.22,27,27,0,0,1-13.76-3.76L98.33,747.59h0l-3-1.79a27.2,27.2,0,0,1,27.58-46.9l7.94,4.65,4.84,2.86L468.4,902,497,918.79l0,0,10.21,6A27.24,27.24,0,0,1,516.87,962Z"/><path class="cls-1" d="M905.13,740.55a26.65,26.65,0,0,1-6.42,5.25L514.31,971.71a27.1,27.1,0,0,1-13.76,3.74,28.44,28.44,0,0,1-3.46-.22h0A27.16,27.16,0,0,1,477.1,962a26.39,26.39,0,0,1-2.12-4.55,27.14,27.14,0,0,1,11.79-32.66l10.26-6,21.67-12.74,340.24-200,12.21-7.17a27.19,27.19,0,0,1,34,41.63Z"/><path class="cls-1" d="M501.12,55a24.67,24.67,0,0,1-5.37,9s0,.08-.08.11A26.45,26.45,0,0,1,490,68.69l-11.66,7.23-2.3,1.41L335.62,164.38l-54.81,33.94L160.27,273l-.1,0-13.25,8.21-11.3,7-8,5-2,1.26L123.2,296c-.12.08-.22.12-.34.19h0a28.36,28.36,0,0,1-17.5,3.82,29.2,29.2,0,0,1-7.82-2,26.82,26.82,0,0,1-12-9.77,25,25,0,0,1-4.17-11.6c-.06-.57-.1-1.14-.12-1.69a24.77,24.77,0,0,1,1.1-8.49c0-.07,0-.15.08-.23a10.56,10.56,0,0,1,.53-1.42,1.32,1.32,0,0,1,.16-.45,25.65,25.65,0,0,1,6.28-9.06l.1-.08A28.76,28.76,0,0,1,93.67,252l11.65-7.22,54.85-34,120.64-74.71,54.81-33.95L460.5,24.73a28.1,28.1,0,0,1,29.62.08,2.34,2.34,0,0,1,.39.25A25.61,25.61,0,0,1,501.12,55Z"/><path class="cls-1" d="M884,291.55l-6.3,4.05-18.73,12.07L518.7,526.94l-9.49,6.13a27.13,27.13,0,0,1-14.72,4.33,25.61,25.61,0,0,1-3.29-.2s0,0,0,0A27.18,27.18,0,0,1,471.63,525a26.88,26.88,0,0,1-3.23-7,27.2,27.2,0,0,1,1.28-18.88v0a0,0,0,0,1,0,0s0,0,0-.08,0,0,0,0,0,0,0-.06a27.06,27.06,0,0,1,10-11.46l9.17-5.93h0l0,0,1.62-1L820.22,267.92h0l34.28-22.09A27.21,27.21,0,0,1,887,248.09,26.25,26.25,0,0,1,892.1,254,27.21,27.21,0,0,1,884,291.55Z"/><path class="cls-1" d="M514.49,524.42a26.58,26.58,0,0,1-22.09,12.8h-.73a3.7,3.7,0,0,1-.47,0s0,0,0,0a26.53,26.53,0,0,1-12.78-3.56l-8.48-4.9-1.5-.87L353.56,461.34l-13.65-7.93-.92-.51-4.83-2.82-.77-.41-32.66-19-11-6.36-116-67.18L142.41,339l-1.2-.69-5.59-3.25-4.84-2.8-9.85-5.71-10.41-6c-.63-.38-1.28-.77-1.87-1.18a26,26,0,0,1-11-18.84,22.67,22.67,0,0,1-.14-2.58,25.56,25.56,0,0,1,1.34-7.8c0-.08,0-.16.08-.26.14-.45.32-.92.51-1.39a2.67,2.67,0,0,1,.18-.48,21.17,21.17,0,0,1,1.58-3.11,26.2,26.2,0,0,1,5.59-6.65h0a26.72,26.72,0,0,1,28.8-3.47c.55.26,1.1.55,1.64.87l9.66,5.61,26.78,15.53h.08l108.88,63.15,7.08,4.09,29.42,17.05,7.36,4.29,10.5,6.07,5.41,3.15,56.65,32.78,5.84,3.41,85.65,49.63,1.06.63s0,0,0,0l1.4.81,2.76,1.57h0l9.21,5.38A25.89,25.89,0,0,1,514.49,524.42Z"/><polygon class="cls-2" points="468.4 527.87 468.4 901.99 135.62 706.41 135.62 335.06 141.21 338.31 142.41 339 173.7 357.15 289.75 424.33 300.73 430.69 333.39 449.67 334.16 450.08 338.99 452.89 339.91 453.41 353.56 461.34 468.4 527.87"/><polygon class="cls-2" points="858.94 307.67 858.94 706.09 518.7 906.07 518.7 526.94 858.94 307.67"/><path class="cls-1" d="M518.7,507.33V939.78c0,14.57-11.26,26.38-25.14,26.38A24.33,24.33,0,0,1,475,957.49a26.8,26.8,0,0,1-6.58-17.71V507.33a26.45,26.45,0,0,1,1.28-8.26.07.07,0,0,1,0-.06s0,0,0-.08,0,0,0,0,0,0,0-.06a25.29,25.29,0,0,1,19.13-17.39h0l0,0h0a16.18,16.18,0,0,1,2.64-.39h0c.63-.06,1.26-.08,1.91-.08s1.06,0,1.58,0h0c11.63.77,21.1,9.81,23.15,21.58A25.44,25.44,0,0,1,518.7,507.33Z"/><polygon class="cls-2" points="820.22 267.92 490.57 480.4 404.92 430.77 399.08 427.36 342.43 394.58 337.02 391.43 326.52 385.36 319.16 381.07 289.75 364.02 282.66 359.93 173.78 296.79 173.7 296.79 146.92 281.25 160.17 273.04 160.27 273 280.81 198.32 335.62 164.38 476.08 77.33 478.6 78.73 486.36 83.05 527.11 105.59 533.78 109.31 633.29 164.38 670.35 184.93 673.02 186.37 687.59 194.48 724.17 214.72 820.22 267.92"/><path class="cls-1" d="M904.36,270.22v.14a28.37,28.37,0,0,1-3.26,11.13,27.22,27.22,0,0,1-23,14.11h-.41a26.29,26.29,0,0,1-13.49-3.36l-5.24-2.9-8.44-4.66-.1,0-30.17-16.72h0l-96.05-53.2-36.58-20.24L673,186.37l-2.67-1.44-37.06-20.55-99.5-55.07-6.68-3.72L486.36,83l-7.76-4.31-2.52-1.4L474,76.17A27.6,27.6,0,0,1,463.2,39a27.06,27.06,0,0,1,27-13.94l.28,0a26,26,0,0,1,9.61,3.17l13,7.19L553.83,58l6.69,3.7L633.29,102l37.06,20.48,2.67,1.44L687.59,132l36.58,20.24,166.18,92a27.49,27.49,0,0,1,7.83,6.6A27.84,27.84,0,0,1,904.36,270.22Z"/></svg>