<svg id="D_Box" data-name="D Box" xmlns="http://www.w3.org/2000/svg" width="171.741" height="197.09" viewBox="0 0 171.741 197.09">
  <path id="Path_271" data-name="Path 271" d="M406.224,121.172V213.2a5.612,5.612,0,1,1-11.224,0V121.172a5.616,5.616,0,0,1,5.612-5.612c.057,0,.114,0,.171,0a5.583,5.583,0,0,1,2.316.573v0a5.575,5.575,0,0,1,3.036,4.023A5.11,5.11,0,0,1,406.224,121.172Z" transform="translate(-234.483 -68.599)" fill="#9f2f2f"/>
  <path id="Path_272" data-name="Path 272" d="M11.224,121.07V213.2A5.612,5.612,0,0,1,0,213.2V121.172a.544.544,0,0,1,0-.081v-.041a5.611,5.611,0,0,1,11.13-.886A5.038,5.038,0,0,1,11.224,121.07Z" transform="translate(0.002 -68.599)" fill="#9f2f2f"/>
  <path id="Path_273" data-name="Path 273" d="M90.1,397.715a5.63,5.63,0,0,1-4.092,2.727H86a6.451,6.451,0,0,1-.74.045,5.573,5.573,0,0,1-2.841-.776L3.716,353.458H3.708l-.626-.37a5.615,5.615,0,0,1,5.693-9.68l1.638.959,1,.589L80.1,385.325l5.9,3.466,0,0,2.109,1.239a5.622,5.622,0,0,1,1.987,7.68Z" transform="translate(-0.187 -203.397)" fill="#9f2f2f"/>
  <path id="Path_274" data-name="Path 274" d="M288.274,352.006a5.5,5.5,0,0,1-1.325,1.085L207.61,399.718a5.6,5.6,0,0,1-2.841.772,5.982,5.982,0,0,1-.715-.045h-.008a5.607,5.607,0,0,1-4.117-2.723,5.453,5.453,0,0,1-.439-.939,5.6,5.6,0,0,1,2.434-6.742l2.117-1.243,4.474-2.629,70.225-41.275,2.519-1.479a5.611,5.611,0,0,1,7.014,8.591Z" transform="translate(-118.223 -203.4)" fill="#9f2f2f"/>
  <path id="Path_275" data-name="Path 275" d="M86.66,7.1a5.1,5.1,0,0,1-1.109,1.857c-.008.008-.008.016-.016.024a5.44,5.44,0,0,1-1.162.955l-2.406,1.491-.475.293L52.5,29.684,41.187,36.69,16.309,52.1l-.02.008-2.735,1.695-2.333,1.443-1.65,1.024-.414.26-.5.309c-.024.016-.045.024-.069.041H8.58a5.67,5.67,0,0,1-2.966.821,5.734,5.734,0,0,1-.646-.033,6.021,6.021,0,0,1-1.613-.423A5.52,5.52,0,0,1,.888,55.232a5.167,5.167,0,0,1-.862-2.394C.014,52.721.006,52.6,0,52.489a5.081,5.081,0,0,1,.228-1.751c.008-.016.008-.033.016-.049a1.958,1.958,0,0,1,.11-.293A.28.28,0,0,1,.388,50.3a5.277,5.277,0,0,1,1.3-1.869.147.147,0,0,1,.02-.016,5.873,5.873,0,0,1,.857-.65l2.406-1.491,11.321-7.014,24.9-15.422L52.5,16.835,78.277.86a5.8,5.8,0,0,1,6.112.016.558.558,0,0,1,.081.053A5.287,5.287,0,0,1,86.66,7.1Z" transform="translate(0.004 0.002)" fill="#9f2f2f"/>
  <path id="Path_276" data-name="Path 276" d="M282.075,122.552l-1.3.837-3.865,2.491-70.225,45.257-1.959,1.264a5.6,5.6,0,0,1-3.04.894,5.385,5.385,0,0,1-.679-.041s0,0-.008,0a5.61,5.61,0,0,1-4.031-2.528,5.534,5.534,0,0,1-.666-1.447,5.617,5.617,0,0,1,.264-3.9v-.008a0,0,0,0,1,0,0s0-.008.008-.016,0,0,0-.008,0-.008,0-.012a5.6,5.6,0,0,1,2.056-2.365l1.894-1.223h0l0,0,.333-.211,68.038-43.855h0L276,113.117a5.611,5.611,0,0,1,6.7.467,5.358,5.358,0,0,1,1.061,1.211A5.614,5.614,0,0,1,282.075,122.552Z" transform="translate(-116.393 -66.619)" fill="#9f2f2f"/>
  <path id="Path_277" data-name="Path 277" d="M94.325,179.833a5.492,5.492,0,0,1-4.559,2.641h-.15a.778.778,0,0,1-.1,0s0,0-.008,0a5.462,5.462,0,0,1-2.637-.736l-1.751-1.012-.309-.179-23.7-13.731-2.816-1.638-.191-.106-1-.581-.158-.085-6.742-3.917-2.268-1.313L23.986,145.308l-6.457-3.747-.248-.142-1.154-.671-1-.577L13.1,138.993l-2.15-1.243c-.13-.077-.264-.158-.386-.244a5.358,5.358,0,0,1-2.272-3.889,4.723,4.723,0,0,1-.028-.532,5.23,5.23,0,0,1,.276-1.609c.008-.016.008-.033.016-.053.028-.093.065-.191.106-.289a.543.543,0,0,1,.037-.1,4.332,4.332,0,0,1,.325-.642,5.462,5.462,0,0,1,1.154-1.374h.008a5.519,5.519,0,0,1,5.945-.715c.114.053.228.114.337.179l2,1.158,5.527,3.206H24l22.472,13.032,1.463.845,6.071,3.519,1.52.886,2.166,1.252,1.118.65L70.5,159.8l1.207.7,17.677,10.245.219.13s0,0,0,0l.289.167.569.325h.008l1.9,1.109A5.344,5.344,0,0,1,94.325,179.833Z" transform="translate(-4.902 -75.834)" fill="#9f2f2f"/>
  <path id="Path_278" data-name="Path 278" d="M96.3,199.536v77.218L27.62,236.385V159.74l1.154.671.248.142,6.457,3.747,23.951,13.865,2.268,1.313,6.742,3.917.158.085,1,.581.191.106L72.6,185.8Z" transform="translate(-16.395 -94.826)" fill="#efe9e7"/>
  <path id="Path_279" data-name="Path 279" d="M292.415,145.83v82.233L222.19,269.338v-78.25Z" transform="translate(-131.897 -86.568)" fill="#efe9e7"/>
  <path id="Path_280" data-name="Path 280" d="M207.023,239.285V328.54a5.323,5.323,0,0,1-5.189,5.445A5.027,5.027,0,0,1,198,332.2a5.542,5.542,0,0,1-1.357-3.657V239.285a5.5,5.5,0,0,1,.264-1.707.015.015,0,0,1,0-.012s0-.008.008-.016,0,0,0-.008,0-.008,0-.012a5.218,5.218,0,0,1,3.95-3.588h0l0,0h.008a3.151,3.151,0,0,1,.545-.081h0c.13-.012.26-.016.394-.016.106,0,.219,0,.325.008h.008a5.288,5.288,0,0,1,4.779,4.454A5.158,5.158,0,0,1,207.023,239.285Z" transform="translate(-116.73 -138.814)" fill="#9f2f2f"/>
  <path id="Path_281" data-name="Path 281" d="M172.326,68.176l-68.038,43.855L86.611,101.787l-1.207-.7L73.712,94.318l-1.118-.65-2.166-1.252-1.52-.886-6.071-3.519-1.463-.845L38.9,74.134h-.016L33.36,70.928l2.735-1.695.02-.008L60.993,53.811l11.313-7.006L101.3,28.84l.52.289,1.6.89,8.412,4.653,1.378.768,20.538,11.366,7.648,4.242.553.3,3.007,1.674L152.5,57.2Z" transform="translate(-19.802 -17.119)" fill="#efe9e7"/>
  <path id="Path_282" data-name="Path 282" d="M284.052,52.818v.028a5.863,5.863,0,0,1-.675,2.3,5.618,5.618,0,0,1-4.75,2.914h-.085a5.427,5.427,0,0,1-2.784-.695l-1.081-.6-1.743-.963-.02-.008-6.226-3.45h0l-19.823-10.98-7.55-4.177L236.3,35.511l-.553-.3L228.1,30.972,207.565,19.606l-1.378-.768-8.412-4.653-1.6-.89-.52-.289-.439-.24A5.7,5.7,0,0,1,193,5.086a5.585,5.585,0,0,1,5.579-2.877c.02,0,.037,0,.057.008a5.333,5.333,0,0,1,1.983.654l2.674,1.483L211.7,9.012l1.382.764L228.1,18.1l7.648,4.226.553.3,3.007,1.666,7.55,4.177,34.3,19a5.669,5.669,0,0,1,1.617,1.361A5.753,5.753,0,0,1,284.052,52.818Z" transform="translate(-114.16 -1.286)" fill="#9f2f2f"/>
  <path id="Path_284" data-name="Path 284" d="M287.3,140l2.032,93.465-77.942,32.412-7.4-76.706L281.606,140Z" transform="translate(-121.093 -83.108)" fill="#9f2f2f"/>
</svg>
