<svg id="B_Box" data-name="B Box" xmlns="http://www.w3.org/2000/svg" width="174.408" height="200.151" viewBox="0 0 174.408 200.151">
  <path id="Path_243" data-name="Path 243" d="M11.4,121.156v93.559a5.7,5.7,0,0,1-11.4,0V121.259a.553.553,0,0,1,0-.083v-.041a5.7,5.7,0,0,1,11.3-.9A5.116,5.116,0,0,1,11.4,121.156Z" transform="translate(0.002 -67.87)" fill="#9f2f2f"/>
  <g id="Group_73" data-name="Group 73" transform="translate(0 0)">
    <path id="Path_244" data-name="Path 244" d="M406.4,121.259v93.456a5.7,5.7,0,1,1-11.4,0V121.259a5.7,5.7,0,0,1,5.7-5.7c.058,0,.116,0,.173,0a5.669,5.669,0,0,1,2.352.582v0a5.661,5.661,0,0,1,3.083,4.086A5.189,5.189,0,0,1,406.4,121.259Z" transform="translate(-231.99 -67.87)" fill="#9f2f2f"/>
    <path id="Path_245" data-name="Path 245" d="M91.5,398.571a5.717,5.717,0,0,1-4.156,2.769h-.008a6.554,6.554,0,0,1-.751.045A5.659,5.659,0,0,1,83.7,400.6L3.768,353.626H3.76l-.636-.376a5.7,5.7,0,0,1,5.782-9.83l1.663.974,1.015.6,69.751,41,6,3.52,0,0,2.142,1.259a5.709,5.709,0,0,1,2.018,7.8Z" transform="translate(-0.185 -201.234)" fill="#9f2f2f"/>
    <path id="Path_246" data-name="Path 246" d="M289.658,352.151a5.585,5.585,0,0,1-1.345,1.1L207.741,400.6a5.685,5.685,0,0,1-2.885.784,6.072,6.072,0,0,1-.726-.045h-.008a5.7,5.7,0,0,1-4.18-2.765,5.539,5.539,0,0,1-.446-.953,5.692,5.692,0,0,1,2.472-6.846l2.15-1.263,4.544-2.67,71.315-41.916,2.559-1.5a5.7,5.7,0,0,1,7.123,8.724Z" transform="translate(-116.966 -201.238)" fill="#9f2f2f"/>
    <path id="Path_247" data-name="Path 247" d="M88.006,7.208a5.177,5.177,0,0,1-1.127,1.886c-.008.008-.008.017-.017.025a5.525,5.525,0,0,1-1.18.97L83.239,11.6l-.483.3L53.316,30.145,41.827,37.26,16.563,52.913l-.021.008-2.777,1.721L11.4,56.107l-1.675,1.04-.421.264-.508.314c-.025.017-.045.025-.07.041H8.714A5.758,5.758,0,0,1,5.7,58.6a5.822,5.822,0,0,1-.656-.033,6.115,6.115,0,0,1-1.638-.429A5.606,5.606,0,0,1,.9,56.09,5.247,5.247,0,0,1,.027,53.66C.014,53.54.006,53.42,0,53.3a5.16,5.16,0,0,1,.231-1.779c.008-.017.008-.033.017-.05a1.989,1.989,0,0,1,.111-.3.285.285,0,0,1,.033-.095,5.358,5.358,0,0,1,1.316-1.9.149.149,0,0,1,.021-.017,5.964,5.964,0,0,1,.871-.66l2.443-1.515,11.5-7.123L41.827,24.211,53.316,17.1,79.492.874A5.89,5.89,0,0,1,85.7.89a.567.567,0,0,1,.083.054,5.37,5.37,0,0,1,2.224,6.264Z" transform="translate(0.004 0.002)" fill="#9f2f2f"/>
    <path id="Path_248" data-name="Path 248" d="M283.411,122.713l-1.321.85-3.925,2.53-71.315,45.96-1.989,1.283a5.69,5.69,0,0,1-3.087.908,5.463,5.463,0,0,1-.689-.041s0,0-.008,0a5.7,5.7,0,0,1-4.094-2.567,5.622,5.622,0,0,1-.677-1.469,5.7,5.7,0,0,1,.268-3.958V166.2a0,0,0,0,1,0,0s0-.008.008-.017,0,0,0-.008,0-.008,0-.012a5.691,5.691,0,0,1,2.088-2.4l1.923-1.242h0l0,0,.338-.215,69.095-44.536h0l7.185-4.63a5.7,5.7,0,0,1,6.8.475,5.44,5.44,0,0,1,1.077,1.23A5.7,5.7,0,0,1,283.411,122.713Z" transform="translate(-115.156 -65.911)" fill="#9f2f2f"/>
    <path id="Path_249" data-name="Path 249" d="M95.661,180.642a5.578,5.578,0,0,1-4.63,2.682h-.153a.8.8,0,0,1-.1,0s0,0-.008,0a5.547,5.547,0,0,1-2.678-.747l-1.779-1.028L86,181.364,61.929,167.42l-2.86-1.663-.194-.107-1.011-.59-.161-.087-6.846-3.978-2.3-1.333L24.231,145.581l-6.557-3.8-.252-.144-1.172-.681-1.015-.586-2.063-1.2L10.988,137.9c-.132-.078-.268-.161-.392-.248a5.442,5.442,0,0,1-2.307-3.949,4.8,4.8,0,0,1-.029-.541,5.311,5.311,0,0,1,.281-1.634c.008-.017.008-.033.017-.054.029-.095.066-.194.107-.293a.551.551,0,0,1,.037-.1,4.4,4.4,0,0,1,.33-.652,5.546,5.546,0,0,1,1.172-1.395h.008a5.6,5.6,0,0,1,6.038-.726c.116.054.231.116.343.182l2.026,1.176,5.612,3.256h.017l22.821,13.235,1.486.858,6.165,3.574,1.543.9,2.2,1.271,1.135.66L71.47,160.3l1.226.714,17.952,10.4.223.132s0,0,0,0l.293.169.578.33h.008l1.931,1.127A5.427,5.427,0,0,1,95.661,180.642Z" transform="translate(-4.85 -75.028)" fill="#9f2f2f"/>
    <path id="Path_250" data-name="Path 250" d="M97.371,200.154v78.417l-69.751-41V159.74l1.172.681.252.144,6.557,3.8,24.323,14.081,2.3,1.333,6.846,3.978.161.087,1.011.59.194.107,2.86,1.663Z" transform="translate(-16.22 -93.818)" fill="#efe9e7"/>
    <path id="Path_251" data-name="Path 251" d="M293.505,145.83v83.51L222.19,271.256V191.79Z" transform="translate(-130.495 -85.648)" fill="#efe9e7"/>
    <path id="Path_252" data-name="Path 252" d="M207.184,239.37v90.641a5.405,5.405,0,0,1-5.27,5.53,5.105,5.105,0,0,1-3.9-1.816,5.628,5.628,0,0,1-1.378-3.714V239.37a5.581,5.581,0,0,1,.268-1.733.015.015,0,0,1,0-.012s0-.008.008-.016,0,0,0-.008,0-.008,0-.012a5.3,5.3,0,0,1,4.011-3.644h0l0,0h.008a3.2,3.2,0,0,1,.553-.083h0c.132-.012.264-.016.4-.016.107,0,.223,0,.33.008h.008a5.37,5.37,0,0,1,4.853,4.523A5.239,5.239,0,0,1,207.184,239.37Z" transform="translate(-115.489 -137.338)" fill="#9f2f2f"/>
    <path id="Path_253" data-name="Path 253" d="M174.484,68.787l-69.095,44.536-17.952-10.4-1.226-.714L74.339,95.335l-1.135-.66L71,93.4l-1.543-.9L63.3,88.93l-1.486-.858L38.989,74.837h-.017L33.36,71.581l2.777-1.721.021-.008L61.422,54.2l11.489-7.115L102.352,28.84l.528.293,1.626.9,8.542,4.725,1.4.78L135.3,47.085l7.767,4.308.561.3,3.054,1.7,7.668,4.242Z" transform="translate(-19.591 -16.937)" fill="#efe9e7"/>
    <path id="Path_254" data-name="Path 254" d="M285.477,53.6v.029a5.955,5.955,0,0,1-.685,2.332,5.706,5.706,0,0,1-4.824,2.959h-.087a5.511,5.511,0,0,1-2.827-.706l-1.1-.607-1.77-.978-.021-.008-6.322-3.5h0L247.708,41.971l-7.668-4.242-3.054-1.7-.561-.3-7.767-4.308L207.8,19.877l-1.4-.78-8.542-4.725-1.626-.9-.528-.293-.446-.243a5.787,5.787,0,0,1-2.253-7.8,5.672,5.672,0,0,1,5.666-2.922c.021,0,.037,0,.058.008a5.416,5.416,0,0,1,2.014.664l2.715,1.506L212,9.118l1.4.776,15.253,8.452,7.767,4.292.561.3,3.054,1.692,7.668,4.242,34.83,19.293a5.758,5.758,0,0,1,1.643,1.382A5.843,5.843,0,0,1,285.477,53.6Z" transform="translate(-112.946 -1.272)" fill="#9f2f2f"/>
    <path id="Path_255" data-name="Path 255" d="M120.99,159.888l36.316,62.727,82.536-45.395L237.778,131,161.02,181.347" transform="translate(-71.058 -76.938)" fill="#9f2f2f"/>
    <g id="Group_72" data-name="Group 72" transform="translate(53.943 30.659)">
      <path id="Path_256" data-name="Path 256" d="M159.433,75.512l-.058-.3,1.139-.924.376.037q4.469,3.708,7,5.641.953.73,7.717,5.617,2.167,1.585,3.12,2.315a25.778,25.778,0,0,1,5.208,4.952,6.219,6.219,0,0,1,1.279,4.407,5.7,5.7,0,0,1-2.233,3.871,10.952,10.952,0,0,1-6.863,2.138q-4.339.087-10.168-2.9a39.23,39.23,0,0,1,4.18,4.238,9.888,9.888,0,0,1,1.96,3.6,5.825,5.825,0,0,1-.144,3.566,7.663,7.663,0,0,1-2.521,3.31,13.529,13.529,0,0,1-3.549,2.022,15.084,15.084,0,0,1-5.026.924,23.505,23.505,0,0,1-6.1-.611,27.2,27.2,0,0,1-5.778-1.981,34.183,34.183,0,0,1-5.848-3.722q-.656-.5-3.8-3.091-3.547-2.823-3.85-3.054-1.851-1.418-4.725-3.326l-.037-.314.751-.611.446-.017a13.948,13.948,0,0,0,2.641.73q.47,0,4.42-2.967t5.951-4.593l8.349-6.772,5.138-4.209q1.684-1.368,2.687-2.266a13.982,13.982,0,0,0,1.362-1.341,1.113,1.113,0,0,0,.326-.755,1.671,1.671,0,0,0-.305-.718,8.3,8.3,0,0,0-1.131-1.205Zm-18.715,30.662a26.176,26.176,0,0,0,3.887,3.619,20.624,20.624,0,0,0,7.139,3.813,12.53,12.53,0,0,0,6.153.132,12.677,12.677,0,0,0,5.084-2.476q3.275-2.656,3.029-5.951t-7.618-8.935q-1.226-.935-3.029-2.175l-7.758,6.293Zm16.536-13.5q1.269,1.114,2.984,2.427,5.633,4.308,9.516,4.626a9.221,9.221,0,0,0,6.822-2.063,5.432,5.432,0,0,0,2.059-3,4.742,4.742,0,0,0-.821-3.516,17.6,17.6,0,0,0-4.271-4.275,34.63,34.63,0,0,0-4.8-3.136q-2.29,1.473-7.391,5.608Z" transform="translate(-130.71 -74.29)" fill="#9f2f2f"/>
    </g>
  </g>
</svg>
