<svg id="Group_58" data-name="Group 58" xmlns="http://www.w3.org/2000/svg" width="74.497" height="86.088" viewBox="0 0 74.497 86.088">
  <path id="Path_206" data-name="Path 206" d="M39.573,104.028a12.124,12.124,0,0,0-6.818,8.748c-.214-6.145-3.573-16.045-5.184-20.241,1.247-1.111,4.588-8.029,6.2-11.475l-.783,13.855c-.46-.018-.8.451-.847,1.306a5.376,5.376,0,0,0,1.334,3.719c.81.774,1.52.364,1.593-.919a5.669,5.669,0,0,0-.619-2.708l.783-13.855C36.314,88.488,38.571,100.764,39.573,104.028Z" transform="translate(-15.021 -44.162)" fill="#f87952"/>
  <g id="Group_47" data-name="Group 47" transform="translate(34.442 60.539)">
    <line id="Line_123" data-name="Line 123" y1="20.086" x2="34.297" transform="translate(2.727 2.731)"/>
    <path id="Path_207" data-name="Path 207" d="M78.4,158.548a2.731,2.731,0,0,1-1.379-5.089l34.3-20.087a2.732,2.732,0,1,1,2.758,4.716l-34.3,20.087A2.722,2.722,0,0,1,78.4,158.548Z" transform="translate(-75.67 -133)" fill="#f87952"/>
  </g>
  <g id="Group_48" data-name="Group 48" transform="translate(0.305 0)">
    <line id="Line_124" data-name="Line 124" y1="20.086" x2="34.297" transform="translate(2.727 2.733)"/>
    <path id="Path_208" data-name="Path 208" d="M3.4,25.546a2.731,2.731,0,0,1-1.379-5.089L36.314.371a2.732,2.732,0,1,1,2.758,4.716L4.775,25.173A2.694,2.694,0,0,1,3.4,25.546Z" transform="translate(-0.67 0.005)" fill="#f87952"/>
  </g>
  <g id="Group_49" data-name="Group 49" transform="translate(68.73 20.211)">
    <line id="Line_125" data-name="Line 125" x1="0.305" y1="39.745" transform="translate(2.731 2.736)"/>
    <path id="Path_209" data-name="Path 209" d="M154.036,89.611A2.734,2.734,0,0,1,151.3,86.9l-.3-39.75a2.731,2.731,0,0,1,5.462-.046l.3,39.745a2.733,2.733,0,0,1-2.708,2.754A.041.041,0,0,1,154.036,89.611Z" transform="translate(-151 -44.4)" fill="#f87952"/>
  </g>
  <g id="Group_50" data-name="Group 50" transform="translate(0 20.211)">
    <line id="Line_126" data-name="Line 126" x1="0.305" y1="39.745" transform="translate(2.731 2.736)"/>
    <path id="Path_210" data-name="Path 210" d="M3.036,89.611A2.734,2.734,0,0,1,.3,86.9L0,47.154a2.731,2.731,0,1,1,5.462-.046l.3,39.745a2.733,2.733,0,0,1-2.708,2.754A.041.041,0,0,1,3.036,89.611Z" transform="translate(0 -44.4)" fill="#f87952"/>
  </g>
  <g id="Group_51" data-name="Group 51" transform="translate(0.3 60.539)">
    <line id="Line_127" data-name="Line 127" x2="34.297" y2="20.086" transform="translate(2.731 2.731)"/>
    <path id="Path_211" data-name="Path 211" d="M37.688,158.548a2.768,2.768,0,0,1-1.379-.373l-34.3-20.087a2.732,2.732,0,0,1,2.758-4.716l34.3,20.087a2.731,2.731,0,0,1-1.379,5.089Z" transform="translate(-0.66 -133)" fill="#f87952"/>
  </g>
  <g id="Group_52" data-name="Group 52" transform="translate(34.438 0.002)">
    <line id="Line_128" data-name="Line 128" x1="34.297" y1="20.086" transform="translate(2.731 2.731)"/>
    <path id="Path_212" data-name="Path 212" d="M112.688,25.548a2.768,2.768,0,0,1-1.379-.373L77.012,5.089A2.732,2.732,0,0,1,79.77.373l34.3,20.086a2.731,2.731,0,0,1-1.379,5.089Z" transform="translate(-75.66 0)" fill="#f87952"/>
  </g>
  <g id="Group_53" data-name="Group 53" transform="translate(34.984 41.454)">
    <line id="Line_129" data-name="Line 129" y1="38.598" transform="translate(2.731 2.731)"/>
    <path id="Path_213" data-name="Path 213" d="M79.591,135.13A2.733,2.733,0,0,1,76.86,132.4V93.8a2.731,2.731,0,0,1,5.462,0v38.6A2.73,2.73,0,0,1,79.591,135.13Z" transform="translate(-76.86 -91.07)" fill="#f87952"/>
  </g>
  <g id="Group_54" data-name="Group 54" transform="translate(35.054 20.868)">
    <line id="Line_130" data-name="Line 130" y1="21.352" x2="33.86" transform="translate(2.73 2.734)"/>
    <path id="Path_214" data-name="Path 214" d="M79.747,72.66a2.733,2.733,0,0,1-1.461-5.043l33.86-21.352a2.732,2.732,0,1,1,2.918,4.62L81.2,72.237A2.727,2.727,0,0,1,79.747,72.66Z" transform="translate(-77.013 -45.843)" fill="#f87952"/>
  </g>
  <g id="Group_55" data-name="Group 55" transform="translate(0.443 19.881)">
    <line id="Line_131" data-name="Line 131" x1="33.459" y1="21.102" transform="translate(2.73 2.734)"/>
    <path id="Path_215" data-name="Path 215" d="M37.162,70.24a2.7,2.7,0,0,1-1.452-.423L2.246,48.715a2.732,2.732,0,1,1,2.918-4.62L38.627,65.2a2.733,2.733,0,0,1-1.466,5.043Z" transform="translate(-0.973 -43.673)" fill="#f87952"/>
  </g>
  <g id="Group_56" data-name="Group 56" transform="translate(51.932 46.068)">
    <line id="Line_132" data-name="Line 132" x1="1.02" y1="14.98" transform="translate(2.729 2.728)"/>
    <path id="Path_216" data-name="Path 216" d="M117.843,121.645a2.73,2.73,0,0,1-2.722-2.544l-1.02-14.98a2.73,2.73,0,1,1,5.448-.369l1.02,14.98a2.725,2.725,0,0,1-2.54,2.909C117.966,121.641,117.9,121.645,117.843,121.645Z" transform="translate(-114.095 -101.206)" fill="#f87952"/>
  </g>
  <g id="Group_57" data-name="Group 57" transform="translate(50.649 40.537)">
    <path id="Path_217" data-name="Path 217" d="M117.168,98.588c1.261-.828,4.106-3.509-2.012-8.284-.678-.528-1.857-.077-1.625.628a2.6,2.6,0,0,1-.669,3.081.775.775,0,0,0-.137.137c-.369.5-1.789,2.868,3.432,4.561A1.233,1.233,0,0,0,117.168,98.588Z" transform="translate(-111.818 -89.61)" fill="#f87952"/>
    <path id="Path_218" data-name="Path 218" d="M115.993,98.666a1.643,1.643,0,0,1-.514-.082c-2.326-.756-3.705-1.757-4.092-2.977a2.582,2.582,0,0,1,.432-2.289,1.173,1.173,0,0,1,.223-.228,2.147,2.147,0,0,0,.51-2.576,1.023,1.023,0,0,1,.423-1.179,1.672,1.672,0,0,1,1.916.046c2.7,2.107,4.028,4.092,3.955,5.9a4.065,4.065,0,0,1-1.971,3.127h0A1.58,1.58,0,0,1,115.993,98.666ZM113.9,89.972a.719.719,0,0,0-.405.114c-.1.073-.091.118-.082.146a3.053,3.053,0,0,1-.828,3.587.215.215,0,0,0-.046.046,1.665,1.665,0,0,0-.3,1.466c.2.637.974,1.566,3.5,2.39a.748.748,0,0,0,.619-.068h0a3.178,3.178,0,0,0,1.561-2.4c.059-1.475-1.188-3.254-3.6-5.143A.7.7,0,0,0,113.9,89.972Z" transform="translate(-111.276 -89.056)" fill="#ffdfd5"/>
  </g>
</svg>
