<svg id="Layer_1" data-name="Layer 1" xmlns="http://www.w3.org/2000/svg" viewBox="0 0 994.23 994.23"><defs><style>.cls-1{fill:#9f2f2f;}.cls-2{fill:#efe9e7;}</style></defs><title>Illustration Ui</title><path class="cls-1" d="M917.18,282V714.38a26.37,26.37,0,1,1-52.73,0V282a26.39,26.39,0,0,1,26.36-26.37c.27,0,.54,0,.81,0a26.19,26.19,0,0,1,10.88,2.69v0a26.2,26.2,0,0,1,14.26,18.9A23.69,23.69,0,0,1,917.18,282Z"/><path class="cls-1" d="M163,281.53V714.38a26.37,26.37,0,0,1-52.73,0V282a2.55,2.55,0,0,1,0-.39v-.19a26.36,26.36,0,0,1,52.29-4.16A23.57,23.57,0,0,1,163,281.53Z"/><path class="cls-1" d="M532.73,948a26.44,26.44,0,0,1-19.23,12.81h0A31.25,31.25,0,0,1,510,961a26.1,26.1,0,0,1-13.34-3.65L126.86,740h0l-2.94-1.74a26.38,26.38,0,0,1,26.75-45.48l7.69,4.51,4.7,2.77,322.7,189.67,27.75,16.28,0,0,9.9,5.82A26.4,26.4,0,0,1,532.73,948Z"/><path class="cls-1" d="M909.24,733.2a25.72,25.72,0,0,1-6.23,5.1L530.25,957.37A26.23,26.23,0,0,1,516.9,961a29,29,0,0,1-3.36-.21h0A26.35,26.35,0,0,1,494.16,948a25.89,25.89,0,0,1-2.06-4.41,26.34,26.34,0,0,1,11.44-31.68l9.95-5.84,21-12.35L864.45,699.79l11.84-6.95a26.36,26.36,0,0,1,33,40.36Z"/><path class="cls-1" d="M517.46,68.36a23.83,23.83,0,0,1-5.22,8.72s0,.08-.07.12a25.7,25.7,0,0,1-5.46,4.49l-11.31,7-2.23,1.38L357,174.48l-53.15,32.91L186.92,279.81l-.09,0-12.85,8-11,6.78-7.75,4.81-2,1.22L151,302.07c-.11.08-.21.12-.32.19h0a26.59,26.59,0,0,1-13.94,3.86,27.94,27.94,0,0,1-3-.15,28.46,28.46,0,0,1-7.58-2,25.91,25.91,0,0,1-11.59-9.47,24.22,24.22,0,0,1-4-11.24c-.06-.56-.1-1.11-.11-1.65a23.69,23.69,0,0,1,1.06-8.22c0-.08,0-.16.08-.23a8.87,8.87,0,0,1,.52-1.38,1.14,1.14,0,0,1,.15-.44,24.88,24.88,0,0,1,6.09-8.78l.09-.08a28.81,28.81,0,0,1,4-3.05l11.31-7,53.19-33,117-72.46L357,114.11,478.07,39.05a27.24,27.24,0,0,1,28.71.08,2,2,0,0,1,.39.25,24.85,24.85,0,0,1,10.29,29Z"/><path class="cls-1" d="M888.71,297.8l-6.11,3.93-18.15,11.7L534.51,526.07,525.3,532a26.35,26.35,0,0,1-14.28,4.2,26,26,0,0,1-3.19-.19h0a26.35,26.35,0,0,1-18.94-11.88,26,26,0,0,1-3.14-6.8A26.41,26.41,0,0,1,487,499v0h0s0,0,0-.08,0,0,0,0,0,0,0-.06a26.42,26.42,0,0,1,9.66-11.11l8.9-5.75h0l1.56-1,319.67-206h0l33.24-21.43a26.37,26.37,0,0,1,31.47,2.2,24.91,24.91,0,0,1,5,5.69A26.39,26.39,0,0,1,888.71,297.8Z"/><path class="cls-1" d="M530.42,523.62A25.77,25.77,0,0,1,509,536h-1.2a25.79,25.79,0,0,1-12.4-3.46l-8.22-4.75-1.46-.84L374.36,462.45l-13.23-7.69-.9-.5-4.68-2.73-.74-.4-31.68-18.41-10.65-6.16L200,361.41l-30.34-17.6-1.17-.67L163,340l-4.7-2.71-9.54-5.54-10.1-5.84c-.61-.36-1.24-.74-1.82-1.15a25.16,25.16,0,0,1-10.67-18.27,21.16,21.16,0,0,1-.13-2.5,24.59,24.59,0,0,1,1.29-7.56c0-.08,0-.15.08-.25a14,14,0,0,1,.5-1.35,2.46,2.46,0,0,1,.17-.46,20.9,20.9,0,0,1,1.53-3,25.58,25.58,0,0,1,5.42-6.45h0A25.94,25.94,0,0,1,163,281.53a17.13,17.13,0,0,1,1.58.84l9.38,5.44,26,15.06H200L305.6,364.11l6.88,4L341,384.61l7.14,4.16,10.18,5.88,5.25,3.06L418.5,429.5l5.67,3.3,83.05,48.13,1,.61s0,0,0,0l1.36.79,2.67,1.52h0l8.94,5.22A25.1,25.1,0,0,1,530.42,523.62Z"/><polygon class="cls-2" points="485.73 526.97 485.73 889.76 163.02 700.1 163.02 339.99 168.44 343.14 169.61 343.81 199.94 361.41 312.48 426.56 323.13 432.72 354.81 451.13 355.55 451.53 360.23 454.26 361.13 454.76 374.36 462.45 485.73 526.97"/><polygon class="cls-2" points="864.45 313.43 864.45 699.79 534.51 893.72 534.51 526.07 864.45 313.43"/><path class="cls-1" d="M534.51,507.05V926.4c0,14.13-10.92,25.59-24.38,25.59a23.65,23.65,0,0,1-18-8.4,26.07,26.07,0,0,1-6.38-17.19V507.05a25.6,25.6,0,0,1,1.25-8,.07.07,0,0,1,0,0s0,0,0-.08,0,0,0,0,0,0,0-.06a24.55,24.55,0,0,1,18.56-16.86h.08a15,15,0,0,1,2.55-.39h0c.61-.05,1.23-.07,1.86-.07s1,0,1.52,0h0c11.28.74,20.47,9.5,22.45,20.92A24,24,0,0,1,534.51,507.05Z"/><polygon class="cls-2" points="826.89 274.88 507.22 480.93 424.17 432.8 418.5 429.5 363.57 397.71 358.32 394.65 348.14 388.77 341 384.61 312.48 368.08 305.6 364.11 200.02 302.88 199.94 302.88 173.98 287.81 186.83 279.85 186.92 279.81 303.81 207.39 356.96 174.48 493.17 90.07 495.62 91.42 503.14 95.6 542.66 117.47 549.13 121.07 645.63 174.48 681.56 194.41 684.15 195.8 698.28 203.67 733.76 223.3 826.89 274.88"/><path class="cls-1" d="M908.49,277.12v.13A27.48,27.48,0,0,1,905.33,288,26.4,26.4,0,0,1,883,301.73h-.41a25.41,25.41,0,0,1-13.07-3.27l-5.08-2.8-8.19-4.53-.1,0-29.25-16.2h0L733.76,223.3l-35.48-19.63-14.12-7.87-2.6-1.39-35.93-19.93-96.5-53.41-6.47-3.6L503.14,95.6l-7.53-4.18-2.44-1.35-2.06-1.13a26.77,26.77,0,0,1-10.43-36.08A26.25,26.25,0,0,1,506.9,39.34l.27,0a25,25,0,0,1,9.31,3.07l12.57,7L568.57,71.3l6.49,3.59L645.63,114l35.93,19.86,2.6,1.39,14.12,7.83,35.48,19.63L894.9,252a26.6,26.6,0,0,1,7.6,6.4A27,27,0,0,1,908.49,277.12Z"/><path class="cls-1" d="M570.17,205.44c32.13,32.55,25.29,90.43-28.76,134.1-58.38,47.18-122.2,48.8-156.77,13.78-36.07-36.55-22.72-95.24,28.34-136.5C461.59,177.54,530.53,165.28,570.17,205.44Zm-13.81,4.31c-21-21.31-65.73-20.1-116.51,20.94C389.33,271.51,371.29,321,398,348c22.72,23,64.26,20.6,116.68-21.76C571.68,280.18,581,234.69,556.36,209.75Z"/><polyline class="cls-1" points="357.77 436 496.77 676 900.77 463 864.77 279 509.77 536 371.77 438"/></svg>