<svg id="Layer_1" data-name="Layer 1" xmlns="http://www.w3.org/2000/svg" viewBox="0 0 994.23 994.23"><defs><style>.cls-1{fill:#9f2f2f;}.cls-2{fill:#efe9e7;}</style></defs><title>Illustration Ui</title><path class="cls-1" d="M942,270.45V726a27.78,27.78,0,0,1-55.56,0V270.45a27.8,27.8,0,0,1,27.78-27.78c.28,0,.56,0,.85,0a27.6,27.6,0,0,1,11.46,2.83v0a27.61,27.61,0,0,1,15,19.92A25.46,25.46,0,0,1,942,270.45Z"/><path class="cls-1" d="M147.48,269.94V726a27.78,27.78,0,0,1-55.56,0V270.45a2.82,2.82,0,0,1,0-.41v-.2A27.77,27.77,0,0,1,147,265.46,24.21,24.21,0,0,1,147.48,269.94Z"/><path class="cls-1" d="M537,972.06a27.85,27.85,0,0,1-20.25,13.5h0a32.23,32.23,0,0,1-3.66.22A27.61,27.61,0,0,1,499,981.94L109.38,753h0l-3.1-1.83a27.79,27.79,0,0,1,28.18-47.91l8.11,4.75,4.95,2.91,340,199.82,29.23,17.16,0,0,10.44,6.14a27.82,27.82,0,0,1,9.83,38Z"/><path class="cls-1" d="M933.63,745.79a27.11,27.11,0,0,1-6.55,5.37L534.36,982a27.76,27.76,0,0,1-14.06,3.82,29.77,29.77,0,0,1-3.54-.22h0a27.76,27.76,0,0,1-20.38-13.48,27.16,27.16,0,0,1-2.17-4.65,27.72,27.72,0,0,1,12.05-33.36l10.48-6.16,22.14-13,347.6-204.31,12.47-7.32a27.77,27.77,0,0,1,34.72,42.52Z"/><path class="cls-1" d="M520.88,45.36a25.12,25.12,0,0,1-5.49,9.2s0,.08-.08.12a26.74,26.74,0,0,1-5.75,4.72l-11.91,7.39-2.35,1.45L351.8,157.16l-56,34.68L172.66,268.13l-.1,0L159,276.56l-11.54,7.14-8.17,5.07-2.05,1.29-2.48,1.53-.34.2h0a28.08,28.08,0,0,1-14.68,4.06,28.57,28.57,0,0,1-3.2-.16,30,30,0,0,1-8-2.09,27.35,27.35,0,0,1-12.21-10,25.57,25.57,0,0,1-4.26-11.85c-.06-.58-.1-1.16-.12-1.73a25.09,25.09,0,0,1,1.13-8.67c0-.08,0-.16.08-.24a9.64,9.64,0,0,1,.54-1.44,1.36,1.36,0,0,1,.16-.47,26.13,26.13,0,0,1,6.42-9.25l.1-.08a29.21,29.21,0,0,1,4.24-3.22l11.91-7.38,56-34.72L295.8,128.24l56-34.68L479.39,14.49a28.72,28.72,0,0,1,30.25.08,2.75,2.75,0,0,1,.4.26,26.06,26.06,0,0,1,7.83,7.62A25.8,25.8,0,0,1,520.88,45.36Z"/><path class="cls-1" d="M912,287.08l-6.44,4.14-19.13,12.34-347.6,224-9.69,6.26a27.81,27.81,0,0,1-15,4.42,26.93,26.93,0,0,1-3.36-.2s0,0,0,0a27.76,27.76,0,0,1-21.94-39v0a0,0,0,0,1,0,0s0,0,0-.08,0,0,0,0,0,0,0-.06A27.71,27.71,0,0,1,499,487.14l9.37-6.05h0l0,0L510.1,480,846.88,262.94h0l35-22.56a27.77,27.77,0,0,1,33.15,2.31,26.65,26.65,0,0,1,5.25,6A27.8,27.8,0,0,1,912,287.08Z"/><path class="cls-1" d="M534.54,525A27.2,27.2,0,0,1,512,538.07h-.74a4.1,4.1,0,0,1-.49,0s0,0,0,0a27.06,27.06,0,0,1-13.05-3.64l-8.67-5-1.53-.88-117.33-68-13.94-8.11-.94-.52L350.31,449l-.78-.42-33.37-19.39-11.23-6.5L186.38,354.1l-32-18.54-1.23-.71-5.71-3.32-4.95-2.85-10.06-5.84-10.64-6.15c-.64-.38-1.31-.78-1.91-1.21a26.47,26.47,0,0,1-11.24-19.25,21.3,21.3,0,0,1-.15-2.63,26.06,26.06,0,0,1,1.37-8c0-.08,0-.16.08-.26a14,14,0,0,1,.53-1.43,2.67,2.67,0,0,1,.18-.48,20.65,20.65,0,0,1,1.61-3.18,27,27,0,0,1,5.71-6.8h0a27.34,27.34,0,0,1,29.43-3.54c.56.27,1.12.57,1.67.89l9.87,5.73,27.36,15.87h.08l111.23,64.51,7.24,4.18L335,378.54l7.53,4.39,10.72,6.19,5.53,3.22,57.87,33.49,6,3.48L510.1,480l1.09.64s0,0,0,0l1.43.83,2.81,1.61h0l9.42,5.49A26.46,26.46,0,0,1,534.54,525Z"/><polygon class="cls-2" points="487.45 528.52 487.45 910.73 147.48 710.91 147.48 331.53 153.19 334.85 154.42 335.56 186.38 354.1 304.93 422.73 316.16 429.23 349.53 448.62 350.31 449.04 355.24 451.92 356.18 452.44 370.12 460.55 487.45 528.52"/><polygon class="cls-2" points="886.44 303.56 886.44 710.59 538.84 914.9 538.84 527.57 886.44 303.56"/><path class="cls-1" d="M538.84,507.54V949.33c0,14.89-11.5,27-25.68,27a24.88,24.88,0,0,1-19-8.86,27.43,27.43,0,0,1-6.72-18.1V507.54a27,27,0,0,1,1.31-8.45.07.07,0,0,1,0-.06s0,0,0-.08,0,0,0,0,0,0,0-.06a25.82,25.82,0,0,1,19.55-17.76h0l0,0h0a14.82,14.82,0,0,1,2.7-.41h0c.64-.06,1.28-.08,1.95-.08s1.08,0,1.61,0h0c11.89.79,21.56,10,23.65,22.05A25.71,25.71,0,0,1,538.84,507.54Z"/><polygon class="cls-2" points="846.88 262.94 510.1 480.02 422.6 429.31 416.63 425.83 358.76 392.34 353.23 389.12 342.51 382.93 334.98 378.54 304.93 361.12 297.69 356.94 186.46 292.43 186.38 292.43 159.02 276.56 172.56 268.17 172.66 268.13 295.8 191.84 351.8 157.16 495.3 68.23 497.87 69.66 505.8 74.07 547.43 97.1 554.25 100.9 655.91 157.16 693.77 178.16 696.5 179.63 711.39 187.92 748.76 208.59 846.88 262.94"/><path class="cls-1" d="M932.85,265.3v.14a29,29,0,0,1-3.34,11.36A27.81,27.81,0,0,1,906,291.22h-.42a26.83,26.83,0,0,1-13.78-3.43l-5.35-3-8.63-4.77-.1,0L846.9,262.94h0l-98.12-54.35-37.37-20.67-14.89-8.29-2.73-1.47-37.86-21L554.25,100.9l-6.82-3.8-41.63-23-7.93-4.41-2.57-1.42-2.18-1.19a28.22,28.22,0,0,1-11-38,27.64,27.64,0,0,1,27.62-14.24l.28,0a26.39,26.39,0,0,1,9.82,3.24l13.23,7.34,41.64,23.05,6.84,3.78,74.34,41.2,37.86,20.92,2.73,1.47,14.89,8.24,37.37,20.68,169.77,94a28.17,28.17,0,0,1,8,6.73A28.51,28.51,0,0,1,932.85,265.3Z"/><path class="cls-1" d="M587.25,181.09c26.6,23.13,35.58,43.91,30.83,67.1-4.14,18.64-16.86,40-43.62,61.19-32.62,25.83-68.16,38.93-98.85,39.11-30.23.11-54.66-10.94-77.86-31.12L353.6,279l7.81-6.17c18.45,12.34,21.15,11.44,44-6.66l111.23-88.08c24-19,22.83-21.84,10.35-36.4l7.8-6.18ZM424.07,278.66c-20.91,16.56-20.73,26.44-6.58,38.75,34,29.52,85.6,17.46,134.39-21.18,30.39-24.06,46.54-48.45,45-72-.59-13.95-8.47-25.89-21.11-36.88-8.49-7.39-14.69-10-18.8-9.87-3.37-.15-7.19,1.62-18.07,10.23Z"/><polygon class="cls-1" points="914.58 291.83 924.64 754.46 538.84 914.9 502.24 535.21 886.42 291.83 914.58 291.83"/></svg>