<svg id="Group_103" data-name="Group 103" xmlns="http://www.w3.org/2000/svg" xmlns:xlink="http://www.w3.org/1999/xlink" width="232.481" height="185.328" viewBox="0 0 232.481 185.328">
  <defs>
    <clipPath id="clip-path">
      <path id="SVGID" d="M246.89,911.1l-7.623-4.653a5.462,5.462,0,0,0,2.769.792l7.623,4.653A5.458,5.458,0,0,1,246.89,911.1Z" transform="translate(-239.267 -906.451)" fill="none"/>
    </clipPath>
    <clipPath id="clip-path-2">
      <path id="SVGID-2" data-name="SVGID" d="M380.616,810.427l-7.623-4.653a5.457,5.457,0,0,0,2.756.794,6.207,6.207,0,0,0,3.872-1.314l7.623,4.653a6.206,6.206,0,0,1-3.871,1.314A5.452,5.452,0,0,1,380.616,810.427Z" transform="translate(-372.993 -805.254)" fill="none"/>
    </clipPath>
    <clipPath id="clip-path-3">
      <path id="SVGID-3" data-name="SVGID" d="M514.173,690.754l7.623,4.653a5.031,5.031,0,0,1,1.486,1.3l-7.623-4.653A5.028,5.028,0,0,0,514.173,690.754Z" transform="translate(-514.173 -690.754)" fill="none"/>
    </clipPath>
    <clipPath id="clip-path-4">
      <path id="SVGID-4" data-name="SVGID" d="M516.034,692.387l7.622,4.653c1.044,2.179,1.128,2.6,1.164,3.011L517.2,695.4C517.161,694.983,517.078,694.566,516.034,692.387Z" transform="translate(-516.034 -692.387)" fill="none"/>
    </clipPath>
    <clipPath id="clip-path-5">
      <path id="SVGID-5" data-name="SVGID" d="M497.3,904.024l7.623,4.652a6.674,6.674,0,0,1-6.535,6.133l-7.623-4.653A6.674,6.674,0,0,0,497.3,904.024Z" transform="translate(-490.765 -904.024)" fill="none"/>
    </clipPath>
  </defs>
  <g id="Group_102" data-name="Group 102" transform="translate(0)">
    <g id="Group_101" data-name="Group 101" style="isolation: isolate">
      <g id="Group_79" data-name="Group 79" transform="translate(12.529 19.307)">
        <path id="Path_286" data-name="Path 286" d="M264.7,709.637l7.623,4.653L259.233,859.882l-7.623-4.653Z" transform="translate(-251.611 -709.637)" fill="#848585"/>
      </g>
      <g id="Group_82" data-name="Group 82" transform="translate(2.671 176.48)" style="isolation: isolate">
        <g id="Group_81" data-name="Group 81" clip-path="url(#clip-path)">
          <g id="Group_80" data-name="Group 80" style="isolation: isolate">
            <path id="Path_287" data-name="Path 287" d="M242.036,907.243l7.623,4.653a5.458,5.458,0,0,1-2.769-.792l-7.623-4.653a5.462,5.462,0,0,0,2.769.792" transform="translate(-239.267 -906.451)" fill="#747576"/>
          </g>
        </g>
      </g>
      <g id="Group_83" data-name="Group 83" transform="translate(37.335 12.778)">
        <path id="Path_288" data-name="Path 288" d="M282.674,701.461l7.623,4.653,76.151,69.96-7.623-4.653Z" transform="translate(-282.674 -701.461)" fill="#7e7f7f"/>
      </g>
      <g id="Group_86" data-name="Group 86" transform="translate(109.463 95.665)" style="isolation: isolate">
        <g id="Group_85" data-name="Group 85" clip-path="url(#clip-path-2)">
          <g id="Group_84" data-name="Group 84" style="isolation: isolate">
            <path id="Path_289" data-name="Path 289" d="M379.62,805.254l7.623,4.653a6.206,6.206,0,0,1-3.871,1.314,5.452,5.452,0,0,1-2.756-.794l-7.623-4.653a5.457,5.457,0,0,0,2.756.794,6.207,6.207,0,0,0,3.872-1.314" transform="translate(-372.993 -805.254)" fill="#747576"/>
          </g>
        </g>
      </g>
      <g id="Group_87" data-name="Group 87" transform="translate(37.335 12.778)">
        <path id="Path_290" data-name="Path 290" d="M446.689,704.278l7.623,4.653L290.3,706.115l-7.623-4.653Z" transform="translate(-282.674 -701.461)" fill="#707171"/>
      </g>
      <g id="Group_88" data-name="Group 88" transform="translate(116.09 22.559)">
        <path id="Path_291" data-name="Path 291" d="M476.948,713.71l7.623,4.653-95.656,73.106-7.623-4.653Z" transform="translate(-381.292 -713.71)" fill="#747575"/>
      </g>
      <g id="Group_91" data-name="Group 91" transform="translate(222.208 4.227)" style="isolation: isolate">
        <g id="Group_90" data-name="Group 90" clip-path="url(#clip-path-3)">
          <g id="Group_89" data-name="Group 89" style="isolation: isolate">
            <path id="Path_292" data-name="Path 292" d="M514.173,690.754l7.623,4.653a5.031,5.031,0,0,1,1.486,1.3l-7.623-4.653a5.028,5.028,0,0,0-1.486-1.3" transform="translate(-514.173 -690.754)" fill="#7d7e7f"/>
          </g>
        </g>
      </g>
      <g id="Group_94" data-name="Group 94" transform="translate(223.694 5.531)" style="isolation: isolate">
        <g id="Group_93" data-name="Group 93" clip-path="url(#clip-path-4)">
          <g id="Group_92" data-name="Group 92" style="isolation: isolate">
            <path id="Path_293" data-name="Path 293" d="M516.034,692.387l7.622,4.653a15.579,15.579,0,0,1,1.105,2.635l-7.622-4.653a15.569,15.569,0,0,0-1.105-2.634" transform="translate(-516.034 -692.387)" fill="#828383"/>
            <path id="Path_294" data-name="Path 294" d="M517.418,695.686l7.622,4.653a2.562,2.562,0,0,1,.059.377l-7.622-4.653a2.572,2.572,0,0,0-.059-.378" transform="translate(-516.313 -693.051)" fill="#7d7e7f"/>
          </g>
        </g>
      </g>
      <g id="Group_95" data-name="Group 95" transform="translate(5.44 177.272)">
        <path id="Path_295" data-name="Path 295" d="M440.809,910.844l7.623,4.653-198.075-3.4-7.623-4.653Z" transform="translate(-242.734 -907.443)" fill="#707171"/>
      </g>
      <g id="Group_96" data-name="Group 96" transform="translate(210.049 8.543)">
        <path id="Path_296" data-name="Path 296" d="M513.757,696.159l7.623,4.653-14.809,166-7.623-4.653Z" transform="translate(-498.948 -696.159)" fill="#848585"/>
      </g>
      <g id="Group_97" data-name="Group 97">
        <path id="Path_297" data-name="Path 297" d="M460.781,694,445.972,860a6.674,6.674,0,0,1-6.535,6.132l-198.075-3.4a5.6,5.6,0,0,1-5.413-6.338L250.765,691.6c1.942-4.212,2.272-4.509,2.606-4.777,2.274-1.165,2.6-1.244,2.939-1.287a6.519,6.519,0,0,1,.99-.075l198.075,3.4a5.814,5.814,0,0,1,.609.046,7.145,7.145,0,0,1,1.422.376,5.846,5.846,0,0,1,2.211,1.707C460.66,693.171,460.744,693.588,460.781,694Zm-26.2,159.552L447.669,708.02l-95.656,73.106a6.207,6.207,0,0,1-3.872,1.314,5.425,5.425,0,0,1-3.6-1.428l-83-76.245L248.451,850.359l186.133,3.2m2.688-152.5-164.015-2.817,76.151,69.96,87.864-67.144" transform="translate(-235.922 -685.461)" fill="#cbcccd"/>
      </g>
      <g id="Group_100" data-name="Group 100" transform="translate(203.514 174.542)" style="isolation: isolate">
        <g id="Group_99" data-name="Group 99" clip-path="url(#clip-path-5)">
          <g id="Group_98" data-name="Group 98" style="isolation: isolate">
            <path id="Path_298" data-name="Path 298" d="M498.919,904.024l7.623,4.652a6.8,6.8,0,0,1-.115.772L498.8,904.8a6.816,6.816,0,0,0,.115-.771" transform="translate(-492.384 -904.024)" fill="#7d7e7f"/>
            <path id="Path_299" data-name="Path 299" d="M498.621,904.99l7.623,4.653a6.811,6.811,0,0,1-.725,1.938l-7.622-4.653a6.844,6.844,0,0,0,.725-1.939" transform="translate(-492.201 -904.218)" fill="#797a7a"/>
            <path id="Path_300" data-name="Path 300" d="M496.46,907.418l7.623,4.653a6.5,6.5,0,0,1-5.695,3.422l-7.623-4.653a6.506,6.506,0,0,0,5.695-3.421" transform="translate(-490.765 -904.708)" fill="#747576"/>
          </g>
        </g>
      </g>
    </g>
  </g>
</svg>
