<svg id="Group_46" data-name="Group 46" xmlns="http://www.w3.org/2000/svg" width="78.081" height="90.704" viewBox="0 0 78.081 90.704">
  <g id="Group_35" data-name="Group 35" transform="translate(36.099 63.926)">
    <line id="Line_112" data-name="Line 112" y1="21.053" x2="35.947" transform="translate(2.858 2.863)"/>
    <path id="Path_194" data-name="Path 194" d="M78.532,160.777a2.863,2.863,0,0,1-1.445-5.334l35.947-21.053a2.863,2.863,0,1,1,2.891,4.942L79.978,160.386A2.853,2.853,0,0,1,78.532,160.777Z" transform="translate(-75.67 -134)" fill="#b10505"/>
  </g>
  <g id="Group_36" data-name="Group 36" transform="translate(0.32 0)">
    <line id="Line_113" data-name="Line 113" y1="21.053" x2="35.947" transform="translate(2.858 2.863)"/>
    <path id="Path_195" data-name="Path 195" d="M3.532,26.777a2.863,2.863,0,0,1-1.445-5.334L38.028.391a2.863,2.863,0,1,1,2.891,4.942L4.973,26.386A2.823,2.823,0,0,1,3.532,26.777Z" transform="translate(-0.67 0)" fill="#b10505"/>
  </g>
  <g id="Group_37" data-name="Group 37" transform="translate(72.036 21.659)">
    <line id="Line_114" data-name="Line 114" x1="0.32" y1="41.657" transform="translate(2.862 2.867)"/>
    <path id="Path_196" data-name="Path 196" d="M154.182,92.786a2.866,2.866,0,0,1-2.862-2.839L151,48.286a2.862,2.862,0,0,1,5.725-.048l.32,41.657a2.865,2.865,0,0,1-2.839,2.886A.043.043,0,0,1,154.182,92.786Z" transform="translate(-151 -45.4)" fill="#b10505"/>
  </g>
  <g id="Group_38" data-name="Group 38" transform="translate(0 21.659)">
    <line id="Line_115" data-name="Line 115" x1="0.32" y1="41.657" transform="translate(2.862 2.867)"/>
    <path id="Path_197" data-name="Path 197" d="M3.182,92.786A2.866,2.866,0,0,1,.32,89.948L0,48.286a2.862,2.862,0,0,1,5.725-.048L6.044,89.9a2.865,2.865,0,0,1-2.839,2.886A.043.043,0,0,1,3.182,92.786Z" transform="translate(0 -45.4)" fill="#b10505"/>
  </g>
  <g id="Group_39" data-name="Group 39" transform="translate(0.315 63.926)">
    <line id="Line_116" data-name="Line 116" x2="35.947" y2="21.053" transform="translate(2.863 2.863)"/>
    <path id="Path_198" data-name="Path 198" d="M39.469,160.777a2.9,2.9,0,0,1-1.445-.391L2.077,139.333a2.863,2.863,0,1,1,2.891-4.942l35.947,21.053a2.863,2.863,0,0,1-1.445,5.334Z" transform="translate(-0.66 -134)" fill="#b10505"/>
  </g>
  <g id="Group_40" data-name="Group 40" transform="translate(36.094 0)">
    <line id="Line_117" data-name="Line 117" x1="35.947" y1="21.053" transform="translate(2.863 2.863)"/>
    <path id="Path_199" data-name="Path 199" d="M114.469,26.777a2.9,2.9,0,0,1-1.446-.391L77.077,5.333A2.863,2.863,0,0,1,79.968.391l35.947,21.053a2.863,2.863,0,0,1-1.445,5.334Z" transform="translate(-75.66 0)" fill="#b10505"/>
  </g>
  <path id="Path_200" data-name="Path 200" d="M100.4,107.014l2.18,20.919,17.938-21.153Z" transform="translate(-52.503 -55.839)" fill="#b10505"/>
  <g id="Group_41" data-name="Group 41" transform="translate(36.667 43.923)">
    <line id="Line_118" data-name="Line 118" y1="40.455" transform="translate(2.862 2.862)"/>
    <path id="Path_201" data-name="Path 201" d="M79.722,138.25a2.865,2.865,0,0,1-2.862-2.862V94.932a2.862,2.862,0,1,1,5.725,0v40.455A2.862,2.862,0,0,1,79.722,138.25Z" transform="translate(-76.86 -92.07)" fill="#b10505"/>
  </g>
  <g id="Group_42" data-name="Group 42" transform="translate(36.74 22.347)">
    <line id="Line_119" data-name="Line 119" y1="22.379" x2="35.489" transform="translate(2.861 2.866)"/>
    <path id="Path_202" data-name="Path 202" d="M79.879,74.95a2.864,2.864,0,0,1-1.531-5.286l35.489-22.379a2.863,2.863,0,0,1,3.058,4.842L81.405,74.506A2.858,2.858,0,0,1,79.879,74.95Z" transform="translate(-77.013 -46.843)" fill="#b10505"/>
  </g>
  <g id="Group_43" data-name="Group 43" transform="translate(0.464 21.312)">
    <line id="Line_120" data-name="Line 120" x1="35.069" y1="22.117" transform="translate(2.861 2.866)"/>
    <path id="Path_203" data-name="Path 203" d="M38.9,72.517a2.83,2.83,0,0,1-1.522-.444L2.307,49.957a2.863,2.863,0,1,1,3.058-4.842L40.439,67.232A2.864,2.864,0,0,1,38.9,72.517Z" transform="translate(-0.973 -44.673)" fill="#b10505"/>
  </g>
  <g id="Group_44" data-name="Group 44" transform="translate(15.29 43.193)">
    <line id="Line_121" data-name="Line 121" x1="0.448" y2="22.398" transform="translate(1.431 1.431)"/>
    <path id="Path_204" data-name="Path 204" d="M33.481,115.8h-.029a1.43,1.43,0,0,1-1.4-1.46l.448-22.4A1.431,1.431,0,1,1,35.361,92l-.448,22.4A1.43,1.43,0,0,1,33.481,115.8Z" transform="translate(-32.049 -90.54)" fill="#b10505"/>
  </g>
  <g id="Group_45" data-name="Group 45" transform="translate(23.548 45.865)">
    <line id="Line_122" data-name="Line 122" x1="0.186" y2="22.398" transform="translate(1.436 1.431)"/>
    <path id="Path_205" data-name="Path 205" d="M50.8,121.4h-.014a1.432,1.432,0,0,1-1.422-1.441l.186-22.4a1.448,1.448,0,0,1,1.441-1.422,1.432,1.432,0,0,1,1.422,1.441l-.186,22.4A1.423,1.423,0,0,1,50.8,121.4Z" transform="translate(-49.36 -96.14)" fill="#b10505"/>
  </g>
</svg>
