<svg id="Layer_1" data-name="Layer 1" xmlns="http://www.w3.org/2000/svg" viewBox="0 0 1000 1000">
    <defs>
        <style>
            .cls-1 {
                fill: #8d3d3d;
            }
        </style>
    </defs>
    <title>Illustration Ui</title>
    <line class="cls-1" x1="118.87" y1="559.73" x2="95.9" y2="546.27" />
    <line class="cls-1" x1="477.05" y1="769.58" x2="476.19" y2="769.07" />
    <path class="cls-1" d="M498.3,791.28a30.43,30.43,0,0,1-21.25,8.65h-.86a30.37,30.37,0,0,0,14.47-4.2Z" />
    <path class="cls-1"
        d="M708.11,566.7c-97.52,11.17-296.29,50.68-411.2,141.89a8.06,8.06,0,0,1-12.55-9.18c52.07-137.15,29.44-338.55,10.51-434.85a8,8,0,0,1,5.48-9.24c75.74-23.58,286.32-139,413.87-210.79,7.59-4.27,15.63,4.82,10.49,11.85L522,333.65a63.7,63.7,0,1,0,51.42,37.6L776.13,94c5.14-7,16.24-2.13,14.47,6.4-29.7,143.3-75.86,379-75.36,458.3A8,8,0,0,1,708.11,566.7Z" />
    <path class="cls-1"
        d="M890.25,710.91a30.23,30.23,0,0,1-5.32,17.38,29.83,29.83,0,0,1-13,15.5L498.37,962.56a0,0,0,0,1,0,0l-7.65,4.45a27.1,27.1,0,0,1-28.95,0l-7.61-4.45L80.53,743.79A30.47,30.47,0,0,1,65.7,713.93v-.07c0-.84-.08-1.64-.08-2.44L62.16,269.67A30.39,30.39,0,0,1,82,241L421.78,42l.08-.07,7.76-4.56h0A32.18,32.18,0,0,1,441.83,35c17.32,0,31.42,13.56,31.42,30.33a28.34,28.34,0,0,1-14.47,25.33l-4,2.3L143.7,275.17l158.82,80.05a29.42,29.42,0,0,1-13.27,55.7,29.07,29.07,0,0,1-13.2-3.17L123.36,330.8,126.1,689a20.06,20.06,0,0,0,9.84,17l307.9,180.29V710.47a29.4,29.4,0,1,1,58.79,0V889.66L819.46,704.13a19.72,19.72,0,0,0,9.84-17.32l-3-379.38,0-5.65a18.45,18.45,0,0,1,.73-3.42c2.26-7.48,8.46-12.91,16.36-15.35l.11,0a31.73,31.73,0,0,1,8.46-1.39h0a31.57,31.57,0,0,1,4.55.11,35.38,35.38,0,0,1,7.59,1.46,38.79,38.79,0,0,1,7.58,3.24c9.73,5.51,15.34,16.15,15.42,27.3Z" />
    <polyline class="cls-1" points="245.52 392.36 433.38 481.92 433.38 423.6 292.13 349.99" />
    <polyline class="cls-1" points="443.84 742.14 444.31 547.53 502.63 536.6 502.63 730.85" />
</svg>