<svg xmlns="http://www.w3.org/2000/svg" viewBox="0 0 35.99 41.3">
    <defs>
        <style>
            .cls-1 {
                fill: #6E6F81;
            }
        </style>
    </defs>
    <title>Hexagon</title>
    <g id="Layer_2" data-name="Layer 2">
        <g id="Layer_4" data-name="Layer 4">
            <path class="cls-1"
                d="M36,11V30.3a1.16,1.16,0,0,1-.36.84,1,1,0,0,1-.27.23L18.73,41.14a1.16,1.16,0,0,1-.59.16h-.31a1.2,1.2,0,0,1-.6-.16L.74,31.44.6,31.37A1,1,0,0,1,.23,31a.38.38,0,0,1-.09-.15A1.12,1.12,0,0,1,0,30.3V11a.9.9,0,0,1,.05-.36h0l0-.07v0a1.05,1.05,0,0,1,.27-.39h0A1.18,1.18,0,0,1,.54,10L1,9.7,3.41,8.23,8.63,5,11,3.53,16.41.18a1.21,1.21,0,0,1,1.27,0h0a1.39,1.39,0,0,1,.42.14l.56.31,1.76,1,.29.16,3.15,1.74,1.6.89.11.06.64.35,1.58.88,7.19,4a1.12,1.12,0,0,1,.33.28,1.18,1.18,0,0,1,.64.84A.82.82,0,0,1,36,11Z" />
        </g>
    </g>
</svg>